999
dxflib 2.2.0.0
  0
SECTION
  2
HEADER
  9
$ACADVER
  1
AC1015
  9
$HANDSEED
  5
FFFF
  9
$SPLINESEGS
 70
8
  9
$DIMEXE
 40
1.25
  9
$DIMLUNIT
 70
2
  9
$GRIDMODE
 70
1
  9
$INSUNITS
 70
4
  9
$DIMADEC
 70
2
  9
$DIMASZ
 40
2.5
  9
$DIMGAP
 40
0.625
  9
$DIMTXT
 40
2.5
  9
$GRIDUNIT
 10
0.0
 20
0.0
  9
$DIMEXO
 40
0.625
  9
$LUPREC
 70
4
  9
$DIMAUNIT
 70
0
  9
$AUPREC
 70
2
  9
$PLIMMIN
 10
0.0
 20
0.0
  9
$LUNITS
 70
2
  9
$PLIMMAX
 10
210.0
 20
297.0
  9
$DIMSTYLE
  2
Standard
  9
$AUNITS
 70
0
  0
ENDSEC
  0
SECTION
  2
TABLES
  0
TABLE
  2
VPORT
  5
8
100
AcDbSymbolTable
 70
1
  0
VPORT
  5
30
100
AcDbSymbolTableRecord
100
AcDbViewportTableRecord
  2
*Active
 70
0
 10
0.0
 20
0.0
 11
1.0
 21
1.0
 12
286.3055555555554861
 22
148.5
 13
0.0
 23
0.0
 14
10.0
 24
10.0
 15
10.0
 25
10.0
 16
0.0
 26
0.0
 36
1.0
 17
0.0
 27
0.0
 37
0.0
 40
297.0
 41
1.92798353909465
 42
50.0
 43
0.0
 44
0.0
 50
0.0
 51
0.0
 71
0
 72
100
 73
1
 74
3
 75
1
 76
1
 77
0
 78
0
281
0
 65
1
110
0.0
120
0.0
130
0.0
111
1.0
121
0.0
131
0.0
112
0.0
122
1.0
132
0.0
 79
0
146
0.0
  0
ENDTAB
  0
TABLE
  2
LTYPE
  5
5
100
AcDbSymbolTable
 70
21
  0
LTYPE
  5
14
100
AcDbSymbolTableRecord
100
AcDbLinetypeTableRecord
  2
ByBlock
 70
0
  3

 72
65
 73
0
 40
0.0
  0
LTYPE
  5
15
100
AcDbSymbolTableRecord
100
AcDbLinetypeTableRecord
  2
ByLayer
 70
0
  3

 72
65
 73
0
 40
0.0
  0
LTYPE
  5
16
100
AcDbSymbolTableRecord
100
AcDbLinetypeTableRecord
  2
CONTINUOUS
 70
0
  3
Solid line
 72
65
 73
0
 40
0.0
  0
LTYPE
  5
31
100
AcDbSymbolTableRecord
100
AcDbLinetypeTableRecord
  2
DOT
 70
0
  3
Dot . . . . . . . . . . . . . . . . . . . . . .
 72
65
 73
2
 40
6.3499999999999996
 49
0.0
 74
0
 49
-6.3499999999999996
 74
0
  0
LTYPE
  5
32
100
AcDbSymbolTableRecord
100
AcDbLinetypeTableRecord
  2
DOT2
 70
0
  3
Dot (.5x) .....................................
 72
65
 73
2
 40
3.1749999999999998
 49
0.0
 74
0
 49
-3.1749999999999998
 74
0
  0
LTYPE
  5
33
100
AcDbSymbolTableRecord
100
AcDbLinetypeTableRecord
  2
DOTX2
 70
0
  3
Dot (2x) .  .  .  .  .  .  .  .  .  .  .  .  .
 72
65
 73
2
 40
12.6999999999999993
 49
0.0
 74
0
 49
-12.6999999999999993
 74
0
  0
LTYPE
  5
34
100
AcDbSymbolTableRecord
100
AcDbLinetypeTableRecord
  2
DASHED
 70
0
  3
Dashed __ __ __ __ __ __ __ __ __ __ __ __ __ _
 72
65
 73
2
 40
19.0500000000000007
 49
12.6999999999999993
 74
0
 49
-6.3499999999999996
 74
0
  0
LTYPE
  5
35
100
AcDbSymbolTableRecord
100
AcDbLinetypeTableRecord
  2
DASHED2
 70
0
  3
Dashed (.5x) _ _ _ _ _ _ _ _ _ _ _ _ _ _ _ _ _
 72
65
 73
2
 40
9.5250000000000004
 49
6.3499999999999996
 74
0
 49
-3.1749999999999998
 74
0
  0
LTYPE
  5
36
100
AcDbSymbolTableRecord
100
AcDbLinetypeTableRecord
  2
DASHEDX2
 70
0
  3
Dashed (2x) ____  ____  ____  ____  ____  ___
 72
65
 73
2
 40
38.1000000000000014
 49
25.3999999999999986
 74
0
 49
-12.6999999999999993
 74
0
  0
LTYPE
  5
37
100
AcDbSymbolTableRecord
100
AcDbLinetypeTableRecord
  2
DASHDOT
 70
0
  3
Dash dot __ . __ . __ . __ . __ . __ . __ . __
 72
65
 73
4
 40
25.3999999999999986
 49
12.6999999999999993
 74
0
 49
-6.3499999999999996
 74
0
 49
0.0
 74
0
 49
-6.3499999999999996
 74
0
  0
LTYPE
  5
38
100
AcDbSymbolTableRecord
100
AcDbLinetypeTableRecord
  2
DASHDOT2
 70
0
  3
Dash dot (.5x) _._._._._._._._._._._._._._._.
 72
65
 73
4
 40
12.6999999999999993
 49
6.3499999999999996
 74
0
 49
-3.1749999999999998
 74
0
 49
0.0
 74
0
 49
-3.1749999999999998
 74
0
  0
LTYPE
  5
39
100
AcDbSymbolTableRecord
100
AcDbLinetypeTableRecord
  2
DASHDOTX2
 70
0
  3
Dash dot (2x) ____  .  ____  .  ____  .  ___
 72
65
 73
4
 40
50.7999999999999972
 49
25.3999999999999986
 74
0
 49
-12.6999999999999993
 74
0
 49
0.0
 74
0
 49
-12.6999999999999993
 74
0
  0
LTYPE
  5
3A
100
AcDbSymbolTableRecord
100
AcDbLinetypeTableRecord
  2
DIVIDE
 70
0
  3
Divide ____ . . ____ . . ____ . . ____ . . ____
 72
65
 73
6
 40
31.75
 49
12.6999999999999993
 74
0
 49
-6.3499999999999996
 74
0
 49
0.0
 74
0
 49
-6.3499999999999996
 74
0
 49
0.0
 74
0
 49
-6.3499999999999996
 74
0
  0
LTYPE
  5
3B
100
AcDbSymbolTableRecord
100
AcDbLinetypeTableRecord
  2
DIVIDE2
 70
0
  3
Divide (.5x) __..__..__..__..__..__..__..__.._
 72
65
 73
6
 40
15.875
 49
6.3499999999999996
 74
0
 49
-3.1749999999999998
 74
0
 49
0.0
 74
0
 49
-3.1749999999999998
 74
0
 49
0.0
 74
0
 49
-3.1749999999999998
 74
0
  0
LTYPE
  5
3C
100
AcDbSymbolTableRecord
100
AcDbLinetypeTableRecord
  2
DIVIDEX2
 70
0
  3
Divide (2x) ________  .  .  ________  .  .  _
 72
65
 73
6
 40
63.5
 49
25.3999999999999986
 74
0
 49
-12.6999999999999993
 74
0
 49
0.0
 74
0
 49
-12.6999999999999993
 74
0
 49
0.0
 74
0
 49
-12.6999999999999993
 74
0
  0
LTYPE
  5
3D
100
AcDbSymbolTableRecord
100
AcDbLinetypeTableRecord
  2
CENTER
 70
0
  3
Center ____ _ ____ _ ____ _ ____ _ ____ _ ____
 72
65
 73
4
 40
50.7999999999999972
 49
31.75
 74
0
 49
-6.3499999999999996
 74
0
 49
6.3499999999999996
 74
0
 49
-6.3499999999999996
 74
0
  0
LTYPE
  5
3E
100
AcDbSymbolTableRecord
100
AcDbLinetypeTableRecord
  2
CENTER2
 70
0
  3
Center (.5x) ___ _ ___ _ ___ _ ___ _ ___ _ ___
 72
65
 73
4
 40
28.5749999999999993
 49
19.0500000000000007
 74
0
 49
-3.1749999999999998
 74
0
 49
3.1749999999999998
 74
0
 49
-3.1749999999999998
 74
0
  0
LTYPE
  5
3F
100
AcDbSymbolTableRecord
100
AcDbLinetypeTableRecord
  2
CENTERX2
 70
0
  3
Center (2x) ________  __  ________  __  _____
 72
65
 73
4
 40
101.5999999999999943
 49
63.5
 74
0
 49
-12.6999999999999993
 74
0
 49
12.6999999999999993
 74
0
 49
-12.6999999999999993
 74
0
  0
LTYPE
  5
40
100
AcDbSymbolTableRecord
100
AcDbLinetypeTableRecord
  2
BORDER
 70
0
  3
Border __ __ . __ __ . __ __ . __ __ . __ __ .
 72
65
 73
6
 40
44.4500000000000028
 49
12.6999999999999993
 74
0
 49
-6.3499999999999996
 74
0
 49
12.6999999999999993
 74
0
 49
-6.3499999999999996
 74
0
 49
0.0
 74
0
 49
-6.3499999999999996
 74
0
  0
LTYPE
  5
41
100
AcDbSymbolTableRecord
100
AcDbLinetypeTableRecord
  2
BORDER2
 70
0
  3
Border (.5x) __.__.__.__.__.__.__.__.__.__.__.
 72
65
 73
6
 40
22.2250000000000014
 49
6.3499999999999996
 74
0
 49
-3.1749999999999998
 74
0
 49
6.3499999999999996
 74
0
 49
-3.1749999999999998
 74
0
 49
0.0
 74
0
 49
-3.1749999999999998
 74
0
  0
LTYPE
  5
42
100
AcDbSymbolTableRecord
100
AcDbLinetypeTableRecord
  2
BORDERX2
 70
0
  3
Border (2x) ____  ____  .  ____  ____  .  ___
 72
65
 73
6
 40
88.9000000000000057
 49
25.3999999999999986
 74
0
 49
-12.6999999999999993
 74
0
 49
25.3999999999999986
 74
0
 49
-12.6999999999999993
 74
0
 49
0.0
 74
0
 49
-12.6999999999999993
 74
0
  0
ENDTAB
  0
TABLE
  2
LAYER
  5
2
100
AcDbSymbolTable
 70
8
  0
LAYER
  5
10
100
AcDbSymbolTableRecord
100
AcDbLayerTableRecord
  2
0
 70
0
 62
7
  6
CONTINUOUS
290
1
370
0
390
F
  0
LAYER
  5
43
100
AcDbSymbolTableRecord
100
AcDbLayerTableRecord
  2
microATX
 70
0
 62
2
  6
CONTINUOUS
290
1
370
0
390
F
  0
LAYER
  5
44
100
AcDbSymbolTableRecord
100
AcDbLayerTableRecord
  2
Top
 70
0
 62
7
  6
CONTINUOUS
290
1
370
0
390
F
  0
LAYER
  5
45
100
AcDbSymbolTableRecord
100
AcDbLayerTableRecord
  2
Bottom
 70
0
 62
7
  6
CONTINUOUS
290
1
370
0
390
F
  0
LAYER
  5
46
100
AcDbSymbolTableRecord
100
AcDbLayerTableRecord
  2
Front
 70
0
 62
7
  6
CONTINUOUS
290
1
370
0
390
F
  0
LAYER
  5
47
100
AcDbSymbolTableRecord
100
AcDbLayerTableRecord
  2
Restriction
 70
0
 62
1
  6
DASHED
290
1
370
0
390
F
  0
LAYER
  5
48
100
AcDbSymbolTableRecord
100
AcDbLayerTableRecord
  2
Fan
 70
0
 62
7
  6
CONTINUOUS
290
1
370
0
390
F
  0
LAYER
  5
49
100
AcDbSymbolTableRecord
100
AcDbLayerTableRecord
  2
Documentation
 70
0
 62
7
  6
CONTINUOUS
290
1
370
0
390
F
  0
ENDTAB
  0
TABLE
  2
STYLE
  5
3
100
AcDbSymbolTable
 70
1
  0
STYLE
  5
11
100
AcDbSymbolTableRecord
100
AcDbTextStyleTableRecord
  2
Standard
 70
0
 40
0.0
 41
0.75
 50
0.0
 71
0
 42
2.5
  3
txt
  4

  0
ENDTAB
  0
TABLE
  2
VIEW
  5
6
100
AcDbSymbolTable
 70
0
  0
ENDTAB
  0
TABLE
  2
UCS
  5
7
100
AcDbSymbolTable
 70
0
  0
ENDTAB
  0
TABLE
  2
APPID
  5
9
100
AcDbSymbolTable
 70
1
  0
APPID
  5
12
100
AcDbSymbolTableRecord
100
AcDbRegAppTableRecord
  2
ACAD
 70
0
  0
ENDTAB
  0
TABLE
  2
DIMSTYLE
  5
A
100
AcDbSymbolTable
 70
1
100
AcDbDimStyleTable
 71
0
  0
DIMSTYLE
105
27
100
AcDbSymbolTableRecord
100
AcDbDimStyleTableRecord
  2
Standard
 41
2.5
 42
0.625
 43
3.75
 44
1.25
 70
0
 73
0
 74
0
 77
1
 78
8
140
2.5
141
2.5
143
0.03937007874016
147
0.625
171
3
172
1
271
2
272
2
274
3
278
44
283
0
284
8
340
11
  0
ENDTAB
  0
TABLE
  2
BLOCK_RECORD
  5
1
100
AcDbSymbolTable
 70
1
  0
BLOCK_RECORD
  5
1F
100
AcDbSymbolTableRecord
100
AcDbBlockTableRecord
  2
*Model_Space
340
22
  0
BLOCK_RECORD
  5
1B
100
AcDbSymbolTableRecord
100
AcDbBlockTableRecord
  2
*Paper_Space
340
1E
  0
BLOCK_RECORD
  5
23
100
AcDbSymbolTableRecord
100
AcDbBlockTableRecord
  2
*Paper_Space0
340
26
  0
BLOCK_RECORD
  5
4A
100
AcDbSymbolTableRecord
100
AcDbBlockTableRecord
  2
Top
340
0
  0
BLOCK_RECORD
  5
4B
100
AcDbSymbolTableRecord
100
AcDbBlockTableRecord
  2
Front
340
0
  0
BLOCK_RECORD
  5
4C
100
AcDbSymbolTableRecord
100
AcDbBlockTableRecord
  2
Bottom
340
0
  0
BLOCK_RECORD
  5
4D
100
AcDbSymbolTableRecord
100
AcDbBlockTableRecord
  2
ohw
340
0
  0
ENDTAB
  0
ENDSEC
  0
SECTION
  2
BLOCKS
  0
BLOCK
  5
20
100
AcDbEntity
  8
0
100
AcDbBlockBegin
  2
*Model_Space
 70
0
 10
0.0
 20
0.0
 30
0.0
  3
*Model_Space
  1

  0
ENDBLK
  5
21
100
AcDbEntity
  8
0
100
AcDbBlockEnd
  0
BLOCK
  5
1C
100
AcDbEntity
 67
1
  8
0
100
AcDbBlockBegin
  2
*Paper_Space
 70
0
 10
0.0
 20
0.0
 30
0.0
  3
*Paper_Space
  1

  0
ENDBLK
  5
1D
100
AcDbEntity
 67
1
  8
0
100
AcDbBlockEnd
  0
BLOCK
  5
24
100
AcDbEntity
  8
0
100
AcDbBlockBegin
  2
*Paper_Space0
 70
0
 10
0.0
 20
0.0
 30
0.0
  3
*Paper_Space0
  1

  0
ENDBLK
  5
25
100
AcDbEntity
  8
0
100
AcDbBlockEnd
  0
BLOCK
  5
4E
100
AcDbEntity
  8
0
100
AcDbBlockBegin
  2
Top
 70
0
 10
0.0
 20
0.0
 30
0.0
  3
Top
  1

  0
ARC
  5
4F
100
AcDbEntity
  8
Top
 62
256
370
-1
  6
ByLayer
100
AcDbCircle
 10
219.3600037355401469
 20
-5.0000037353758273
 30
0.0
 40
4.9999962646255964
100
AcDbArc
 50
269.9999571919562413
 51
0.0000428042881981
  0
LINE
  5
50
100
AcDbEntity
100
AcDbLine
  8
Top
 62
256
370
-1
  6
ByLayer
 10
219.3599999998363614
 20
-10.0000000000000284
 30
0.0
 11
209.3600000001636658
 21
-10.0
 31
0.0
  0
ARC
  5
51
100
AcDbEntity
  8
Top
 62
256
370
-1
  6
ByLayer
100
AcDbCircle
 10
209.3599962644599941
 20
-5.000003735705036
 30
0.0
 40
4.9999962642963309
100
AcDbArc
 50
179.9999571919389894
 51
270.0000428080437587
  0
LINE
  5
52
100
AcDbEntity
100
AcDbLine
  8
Top
 62
256
370
-1
  6
ByLayer
 10
204.3600000001649448
 20
-4.9999999999997726
 30
0.0
 11
204.3600000001640353
 21
3.4999999999997726
 31
0.0
  0
LINE
  5
53
100
AcDbEntity
100
AcDbLine
  8
Top
 62
256
370
-1
  6
ByLayer
 10
224.3600000001645753
 20
3.4999999999998153
 30
0.0
 11
224.3600000001644048
 21
-4.9999999999997726
 31
0.0
  0
LINE
  5
54
100
AcDbEntity
100
AcDbLine
  8
Top
 62
256
370
-1
  6
ByLayer
 10
225.3600000001631258
 20
3.4999999999997442
 30
0.0
 11
224.3600000001644048
 21
3.4999999999997726
 31
0.0
  0
LINE
  5
55
100
AcDbEntity
100
AcDbLine
  8
Top
 62
256
370
-1
  6
ByLayer
 10
204.360000000164348
 20
3.4999999999997726
 30
0.0
 11
203.3600000001644617
 21
3.4999999999997726
 31
0.0
  0
CIRCLE
  5
56
100
AcDbEntity
100
AcDbCircle
  8
Top
 62
256
370
-1
  6
ByLayer
 10
214.3600000001643195
 20
-5.1000000000175305
 30
0.0
 40
1.75
  0
LINE
  5
57
100
AcDbEntity
100
AcDbLine
  8
Top
 62
256
370
-1
  6
ByLayer
 10
203.3600000001644617
 20
3.4999999999997726
 30
0.0
 11
203.360000000164348
 21
-0.0
 31
0.0
  0
LINE
  5
58
100
AcDbEntity
100
AcDbLine
  8
Top
 62
256
370
-1
  6
ByLayer
 10
225.3600000001643764
 20
-0.0
 30
0.0
 11
225.3600000001644617
 21
3.4999999999997726
 31
0.0
  0
LINE
  5
59
100
AcDbEntity
100
AcDbLine
  8
Top
 62
256
370
-1
  6
ByLayer
 10
-85.5999999999999943
 20
-0.0000000000000001
 30
0.0
 11
-85.5999999999999943
 21
300.0
 31
0.0
  0
ARC
  5
5A
100
AcDbEntity
  8
Top
 62
256
370
-1
  6
ByLayer
100
AcDbCircle
 10
-37.0499962644598639
 20
-5.0000037353758273
 30
0.0
 40
4.9999962646255964
100
AcDbArc
 50
269.9999571919562413
 51
0.0000428042881981
  0
LINE
  5
5B
100
AcDbEntity
100
AcDbLine
  8
Top
 62
256
370
-1
  6
ByLayer
 10
-37.0500000001636636
 20
-10.0000000000000284
 30
0.0
 11
-47.0499999998363307
 21
-10.0
 31
0.0
  0
ARC
  5
5C
100
AcDbEntity
  8
Top
 62
256
370
-1
  6
ByLayer
100
AcDbCircle
 10
-47.0500037355400025
 20
-5.000003735705036
 30
0.0
 40
4.9999962642963309
100
AcDbArc
 50
179.9999571919389894
 51
270.0000428080437587
  0
LINE
  5
5D
100
AcDbEntity
100
AcDbLine
  8
Top
 62
256
370
-1
  6
ByLayer
 10
-52.049999999835066
 20
-4.9999999999997726
 30
0.0
 11
-52.0499999998359755
 21
3.4999999999997726
 31
0.0
  0
LINE
  5
5E
100
AcDbEntity
100
AcDbLine
  8
Top
 62
256
370
-1
  6
ByLayer
 10
-32.0499999998354497
 20
3.4999999999998153
 30
0.0
 11
-32.049999999835606
 21
-4.9999999999997726
 31
0.0
  0
LINE
  5
5F
100
AcDbEntity
100
AcDbLine
  8
Top
 62
256
370
-1
  6
ByLayer
 10
-31.049999999836885
 20
3.4999999999997442
 30
0.0
 11
-32.049999999835606
 21
3.4999999999997726
 31
0.0
  0
LINE
  5
60
100
AcDbEntity
100
AcDbLine
  8
Top
 62
256
370
-1
  6
ByLayer
 10
-52.0499999998356486
 20
3.4999999999997726
 30
0.0
 11
-53.0499999998355349
 21
3.4999999999997726
 31
0.0
  0
CIRCLE
  5
61
100
AcDbEntity
100
AcDbCircle
  8
Top
 62
256
370
-1
  6
ByLayer
 10
-42.0499999998356913
 20
-5.1000000000175305
 30
0.0
 40
1.75
  0
LINE
  5
62
100
AcDbEntity
100
AcDbLine
  8
Top
 62
256
370
-1
  6
ByLayer
 10
-31.0499999998356344
 20
0.0
 30
0.0
 11
-31.0499999998355634
 21
3.4999999999997726
 31
0.0
  0
LINE
  5
63
100
AcDbEntity
100
AcDbLine
  8
Top
 62
256
370
-1
  6
ByLayer
 10
-53.0499999998356486
 20
-0.0000000000000001
 30
0.0
 11
-85.5999999999999943
 21
-0.0000000000000001
 31
0.0
  0
LINE
  5
64
100
AcDbEntity
100
AcDbLine
  8
Top
 62
256
370
-1
  6
ByLayer
 10
-53.0499999998355349
 20
3.4999999999997726
 30
0.0
 11
-53.0499999998356486
 21
-0.0000000000000001
 31
0.0
  0
ARC
  5
65
100
AcDbEntity
  8
Top
 62
256
370
-1
  6
ByLayer
100
AcDbCircle
 10
50.0500037357044363
 20
-5.0000037353758273
 30
0.0
 40
4.9999962646255964
100
AcDbArc
 50
269.9999571919562413
 51
0.0000428042881981
  0
LINE
  5
66
100
AcDbEntity
100
AcDbLine
  8
Top
 62
256
370
-1
  6
ByLayer
 10
50.0500000000006366
 20
-10.0000000000000284
 30
0.0
 11
40.0500000003279695
 21
-10.0
 31
0.0
  0
ARC
  5
67
100
AcDbEntity
  8
Top
 62
256
370
-1
  6
ByLayer
100
AcDbCircle
 10
40.0499962646242977
 20
-5.000003735705036
 30
0.0
 40
4.9999962642963309
100
AcDbArc
 50
179.9999571919389894
 51
270.0000428080437587
  0
LINE
  5
68
100
AcDbEntity
100
AcDbLine
  8
Top
 62
256
370
-1
  6
ByLayer
 10
35.0500000003292342
 20
-4.9999999999997726
 30
0.0
 11
35.0500000003283247
 21
3.4999999999997726
 31
0.0
  0
LINE
  5
69
100
AcDbEntity
100
AcDbLine
  8
Top
 62
256
370
-1
  6
ByLayer
 10
55.0500000003288505
 20
3.4999999999998153
 30
0.0
 11
55.0500000003286942
 21
-4.9999999999997726
 31
0.0
  0
LINE
  5
6A
100
AcDbEntity
100
AcDbLine
  8
Top
 62
256
370
-1
  6
ByLayer
 10
56.0500000003274153
 20
3.4999999999997442
 30
0.0
 11
55.0500000003286942
 21
3.4999999999997726
 31
0.0
  0
LINE
  5
6B
100
AcDbEntity
100
AcDbLine
  8
Top
 62
256
370
-1
  6
ByLayer
 10
35.0500000003286516
 20
3.4999999999997726
 30
0.0
 11
34.0500000003287653
 21
3.4999999999997726
 31
0.0
  0
CIRCLE
  5
6C
100
AcDbEntity
100
AcDbCircle
  8
Top
 62
256
370
-1
  6
ByLayer
 10
45.050000000328609
 20
-5.1000000000175305
 30
0.0
 40
1.75
  0
ARC
  5
6D
100
AcDbEntity
  8
Top
 62
256
370
-1
  6
ByLayer
100
AcDbCircle
 10
475.7700037355401719
 20
-5.0000037353758273
 30
0.0
 40
4.9999962646255964
100
AcDbArc
 50
269.9999571919562413
 51
0.0000428042881981
  0
LINE
  5
6E
100
AcDbEntity
100
AcDbLine
  8
Top
 62
256
370
-1
  6
ByLayer
 10
475.7699999998363865
 20
-10.0000000000000284
 30
0.0
 11
465.7700000001636909
 21
-10.0
 31
0.0
  0
ARC
  5
6F
100
AcDbEntity
  8
Top
 62
256
370
-1
  6
ByLayer
100
AcDbCircle
 10
465.7699962644600191
 20
-5.000003735705036
 30
0.0
 40
4.9999962642963309
100
AcDbArc
 50
179.9999571919389894
 51
270.0000428080437587
  0
LINE
  5
70
100
AcDbEntity
100
AcDbLine
  8
Top
 62
256
370
-1
  6
ByLayer
 10
460.7700000001649414
 20
-4.9999999999997726
 30
0.0
 11
460.7700000001640319
 21
3.4999999999997726
 31
0.0
  0
LINE
  5
71
100
AcDbEntity
100
AcDbLine
  8
Top
 62
256
370
-1
  6
ByLayer
 10
480.7700000001646004
 20
3.4999999999998153
 30
0.0
 11
480.7700000001644298
 21
-4.9999999999997726
 31
0.0
  0
LINE
  5
72
100
AcDbEntity
100
AcDbLine
  8
Top
 62
256
370
-1
  6
ByLayer
 10
481.7700000001631224
 20
3.4999999999997442
 30
0.0
 11
480.7700000001644298
 21
3.4999999999997726
 31
0.0
  0
LINE
  5
73
100
AcDbEntity
100
AcDbLine
  8
Top
 62
256
370
-1
  6
ByLayer
 10
460.770000000164373
 20
3.4999999999997726
 30
0.0
 11
459.7700000001644867
 21
3.4999999999997726
 31
0.0
  0
CIRCLE
  5
74
100
AcDbEntity
100
AcDbCircle
  8
Top
 62
256
370
-1
  6
ByLayer
 10
470.770000000164373
 20
-5.1000000000175305
 30
0.0
 40
1.75
  0
LINE
  5
75
100
AcDbEntity
100
AcDbLine
  8
Top
 62
256
370
-1
  6
ByLayer
 10
459.7700000001644867
 20
3.4999999999997726
 30
0.0
 11
459.770000000164373
 21
0.0
 31
0.0
  0
LINE
  5
76
100
AcDbEntity
100
AcDbLine
  8
Top
 62
256
370
-1
  6
ByLayer
 10
481.770000000164373
 20
0.0
 30
0.0
 11
514.32000000000005
 21
0.0
 31
0.0
  0
LINE
  5
77
100
AcDbEntity
100
AcDbLine
  8
Top
 62
256
370
-1
  6
ByLayer
 10
481.770000000164373
 20
0.0
 30
0.0
 11
481.7700000001644867
 21
3.4999999999997726
 31
0.0
  0
LINE
  5
78
100
AcDbEntity
100
AcDbLine
  8
Top
 62
256
370
-1
  6
ByLayer
 10
514.32000000000005
 20
-0.0000000000000001
 30
0.0
 11
514.32000000000005
 21
299.9999999999999432
 31
0.0
  0
ARC
  5
79
100
AcDbEntity
  8
Top
 62
256
370
-1
  6
ByLayer
100
AcDbCircle
 10
388.6700037357044835
 20
-5.0000037353758273
 30
0.0
 40
4.9999962646255964
100
AcDbArc
 50
269.9999571919562413
 51
0.0000428042881981
  0
LINE
  5
7A
100
AcDbEntity
100
AcDbLine
  8
Top
 62
256
370
-1
  6
ByLayer
 10
388.670000000000698
 20
-10.0000000000000284
 30
0.0
 11
378.6700000003280024
 21
-10.0
 31
0.0
  0
ARC
  5
7B
100
AcDbEntity
  8
Top
 62
256
370
-1
  6
ByLayer
100
AcDbCircle
 10
378.6699962646243307
 20
-5.000003735705036
 30
0.0
 40
4.9999962642963309
100
AcDbArc
 50
179.9999571919389894
 51
270.0000428080437587
  0
LINE
  5
7C
100
AcDbEntity
100
AcDbLine
  8
Top
 62
256
370
-1
  6
ByLayer
 10
373.6700000003293098
 20
-4.9999999999997726
 30
0.0
 11
373.6700000003284003
 21
3.4999999999997726
 31
0.0
  0
LINE
  5
7D
100
AcDbEntity
100
AcDbLine
  8
Top
 62
256
370
-1
  6
ByLayer
 10
393.6700000003289119
 20
3.4999999999998153
 30
0.0
 11
393.6700000003287414
 21
-4.9999999999997726
 31
0.0
  0
LINE
  5
7E
100
AcDbEntity
100
AcDbLine
  8
Top
 62
256
370
-1
  6
ByLayer
 10
394.6700000003274909
 20
3.4999999999997442
 30
0.0
 11
393.6700000003287414
 21
3.4999999999997726
 31
0.0
  0
LINE
  5
7F
100
AcDbEntity
100
AcDbLine
  8
Top
 62
256
370
-1
  6
ByLayer
 10
373.6700000003286846
 20
3.4999999999997726
 30
0.0
 11
372.6700000003287983
 21
3.4999999999997726
 31
0.0
  0
CIRCLE
  5
80
100
AcDbEntity
100
AcDbCircle
  8
Top
 62
256
370
-1
  6
ByLayer
 10
383.6700000003286277
 20
-5.1000000000175305
 30
0.0
 40
1.75
  0
LINE
  5
81
100
AcDbEntity
100
AcDbLine
  8
Top
 62
256
370
-1
  6
ByLayer
 10
427.2200000000000273
 20
0.0
 30
0.0
 11
459.770000000164373
 21
0.0
 31
0.0
  0
LINE
  5
82
100
AcDbEntity
100
AcDbLine
  8
Top
 62
256
370
-1
  6
ByLayer
 10
427.2200000000000273
 20
299.9999999999999432
 30
0.0
 11
514.32000000000005
 21
299.9999999999999432
 31
0.0
  0
LINE
  5
83
100
AcDbEntity
100
AcDbLine
  8
Top
 62
256
370
-1
  6
ByLayer
 10
1.5
 20
0.0
 30
0.0
 11
-31.0499999998356344
 21
0.0
 31
0.0
  0
LINE
  5
84
100
AcDbEntity
100
AcDbLine
  8
Top
 62
256
370
-1
  6
ByLayer
 10
427.2200000000000273
 20
299.9999999999999432
 30
0.0
 11
1.5
 21
300.0000000000000568
 31
0.0
  0
LINE
  5
85
100
AcDbEntity
100
AcDbLine
  8
Top
 62
256
370
-1
  6
ByLayer
 10
1.5
 20
300.0000000000000568
 30
0.0
 11
-85.5999999996714394
 21
300.0000000000000568
 31
0.0
  0
LINE
  5
86
100
AcDbEntity
100
AcDbLine
  8
Top
 62
256
370
-1
  6
ByLayer
 10
1.5
 20
300.0000000000000568
 30
0.0
 11
1.5
 21
0.0
 31
0.0
  0
LINE
  5
87
100
AcDbEntity
100
AcDbLine
  8
Top
 62
256
370
-1
  6
ByLayer
 10
1.5
 20
0.0
 30
0.0
 11
34.0500000003286516
 21
0.0
 31
0.0
  0
LINE
  5
88
100
AcDbEntity
100
AcDbLine
  8
Top
 62
256
370
-1
  6
ByLayer
 10
34.0500000003287653
 20
3.4999999999997726
 30
0.0
 11
34.0500000003286516
 21
0.0
 31
0.0
  0
LINE
  5
89
100
AcDbEntity
100
AcDbLine
  8
Top
 62
256
370
-1
  6
ByLayer
 10
56.0500000003286658
 20
0.0
 30
0.0
 11
203.360000000164348
 21
-0.0
 31
0.0
  0
LINE
  5
8A
100
AcDbEntity
100
AcDbLine
  8
Top
 62
256
370
-1
  6
ByLayer
 10
56.0500000003286658
 20
0.0
 30
0.0
 11
56.0500000003287369
 21
3.4999999999997726
 31
0.0
  0
LINE
  5
8B
100
AcDbEntity
100
AcDbLine
  8
Top
 62
256
370
-1
  6
ByLayer
 10
225.3600000001643764
 20
-0.0
 30
0.0
 11
372.6700000003286846
 21
0.0
 31
0.0
  0
LINE
  5
8C
100
AcDbEntity
100
AcDbLine
  8
Top
 62
256
370
-1
  6
ByLayer
 10
372.6700000003287983
 20
3.4999999999997726
 30
0.0
 11
372.6700000003286846
 21
0.0
 31
0.0
  0
LINE
  5
8D
100
AcDbEntity
100
AcDbLine
  8
Top
 62
256
370
-1
  6
ByLayer
 10
394.6700000003287414
 20
-0.0
 30
0.0
 11
427.2200000000000273
 21
0.0
 31
0.0
  0
LINE
  5
8E
100
AcDbEntity
100
AcDbLine
  8
Top
 62
256
370
-1
  6
ByLayer
 10
394.6700000003287414
 20
-0.0
 30
0.0
 11
394.6700000003287983
 21
3.4999999999997726
 31
0.0
  0
LINE
  5
8F
100
AcDbEntity
100
AcDbLine
  8
Top
 62
256
370
-1
  6
ByLayer
 10
427.2200000000000273
 20
0.0
 30
0.0
 11
427.2200000000000273
 21
149.9999999999999716
 31
0.0
  0
LINE
  5
90
100
AcDbEntity
100
AcDbLine
  8
Top
 62
256
370
-1
  6
ByLayer
 10
427.2200000000000273
 20
149.9999999999999716
 30
0.0
 11
427.2200000000000273
 21
299.9999999999999432
 31
0.0
  0
ARC
  5
91
100
AcDbEntity
  8
Top
 62
256
370
-1
  6
ByLayer
100
AcDbCircle
 10
503.9700000000000273
 20
70.5000000002464304
 30
0.0
 40
2.25
100
AcDbArc
 50
90.0
 51
180.0
  0
LINE
  5
92
100
AcDbEntity
100
AcDbLine
  8
Top
 62
256
370
-1
  6
ByLayer
 10
501.7200000000000273
 20
70.5000000002464304
 30
0.0
 11
501.7200000000000273
 21
70.5000000002464304
 31
0.0
  0
ARC
  5
93
100
AcDbEntity
  8
Top
 62
256
370
-1
  6
ByLayer
100
AcDbCircle
 10
503.9700000000000273
 20
70.5000000002464304
 30
0.0
 40
2.25
100
AcDbArc
 50
180.0
 51
270.0
  0
LINE
  5
94
100
AcDbEntity
100
AcDbLine
  8
Top
 62
256
370
-1
  6
ByLayer
 10
508.4700000000000273
 20
72.7500000002464304
 30
0.0
 11
503.9700000000000273
 21
72.7500000002464304
 31
0.0
  0
ARC
  5
95
100
AcDbEntity
  8
Top
 62
256
370
-1
  6
ByLayer
100
AcDbCircle
 10
508.4700000000000273
 20
70.5000000002464304
 30
0.0
 40
2.25
100
AcDbArc
 50
0.0
 51
90.0
  0
LINE
  5
96
100
AcDbEntity
100
AcDbLine
  8
Top
 62
256
370
-1
  6
ByLayer
 10
503.9700000000000273
 20
68.2500000002464304
 30
0.0
 11
508.4700000000000273
 21
68.2500000002464304
 31
0.0
  0
LINE
  5
97
100
AcDbEntity
100
AcDbLine
  8
Top
 62
256
370
-1
  6
ByLayer
 10
510.7200000000000273
 20
70.5000000002464304
 30
0.0
 11
510.7200000000000273
 21
70.5000000002464304
 31
0.0
  0
ARC
  5
98
100
AcDbEntity
  8
Top
 62
256
370
-1
  6
ByLayer
100
AcDbCircle
 10
508.4700000000000273
 20
70.5000000002464304
 30
0.0
 40
2.25
100
AcDbArc
 50
270.0
 51
0.0
  0
ARC
  5
99
100
AcDbEntity
  8
Top
 62
256
370
-1
  6
ByLayer
100
AcDbCircle
 10
503.9700000000000273
 20
229.5000000000821387
 30
0.0
 40
2.25
100
AcDbArc
 50
90.0
 51
180.0
  0
LINE
  5
9A
100
AcDbEntity
100
AcDbLine
  8
Top
 62
256
370
-1
  6
ByLayer
 10
501.7200000000000273
 20
229.5000000000821387
 30
0.0
 11
501.7200000000000273
 21
229.5000000000821387
 31
0.0
  0
ARC
  5
9B
100
AcDbEntity
  8
Top
 62
256
370
-1
  6
ByLayer
100
AcDbCircle
 10
503.9700000000000273
 20
229.5000000000821387
 30
0.0
 40
2.25
100
AcDbArc
 50
180.0
 51
270.0
  0
LINE
  5
9C
100
AcDbEntity
100
AcDbLine
  8
Top
 62
256
370
-1
  6
ByLayer
 10
508.4700000000000273
 20
231.7500000000821387
 30
0.0
 11
503.9700000000000273
 21
231.7500000000821387
 31
0.0
  0
ARC
  5
9D
100
AcDbEntity
  8
Top
 62
256
370
-1
  6
ByLayer
100
AcDbCircle
 10
508.4700000000000273
 20
229.5000000000821387
 30
0.0
 40
2.25
100
AcDbArc
 50
0.0
 51
90.0
  0
LINE
  5
9E
100
AcDbEntity
100
AcDbLine
  8
Top
 62
256
370
-1
  6
ByLayer
 10
503.9700000000000273
 20
227.2500000000821387
 30
0.0
 11
508.4700000000000273
 21
227.2500000000821387
 31
0.0
  0
LINE
  5
9F
100
AcDbEntity
100
AcDbLine
  8
Top
 62
256
370
-1
  6
ByLayer
 10
510.7200000000000273
 20
229.5000000000821387
 30
0.0
 11
510.7200000000000273
 21
229.5000000000821387
 31
0.0
  0
ARC
  5
A0
100
AcDbEntity
  8
Top
 62
256
370
-1
  6
ByLayer
100
AcDbCircle
 10
508.4700000000000273
 20
229.5000000000821387
 30
0.0
 40
2.25
100
AcDbArc
 50
270.0
 51
0.0
  0
ARC
  5
A1
100
AcDbEntity
  8
Top
 62
256
370
-1
  6
ByLayer
100
AcDbCircle
 10
-79.75
 20
70.5000000002464304
 30
0.0
 40
2.25
100
AcDbArc
 50
90.0
 51
180.0
  0
LINE
  5
A2
100
AcDbEntity
100
AcDbLine
  8
Top
 62
256
370
-1
  6
ByLayer
 10
-82.0
 20
70.5000000002464304
 30
0.0
 11
-82.0
 21
70.5000000002464304
 31
0.0
  0
ARC
  5
A3
100
AcDbEntity
  8
Top
 62
256
370
-1
  6
ByLayer
100
AcDbCircle
 10
-79.75
 20
70.5000000002464304
 30
0.0
 40
2.25
100
AcDbArc
 50
180.0
 51
270.0
  0
LINE
  5
A4
100
AcDbEntity
100
AcDbLine
  8
Top
 62
256
370
-1
  6
ByLayer
 10
-75.25
 20
72.7500000002464304
 30
0.0
 11
-79.75
 21
72.7500000002464304
 31
0.0
  0
ARC
  5
A5
100
AcDbEntity
  8
Top
 62
256
370
-1
  6
ByLayer
100
AcDbCircle
 10
-75.25
 20
70.5000000002464304
 30
0.0
 40
2.25
100
AcDbArc
 50
0.0
 51
90.0
  0
LINE
  5
A6
100
AcDbEntity
100
AcDbLine
  8
Top
 62
256
370
-1
  6
ByLayer
 10
-79.75
 20
68.2500000002464304
 30
0.0
 11
-75.25
 21
68.2500000002464304
 31
0.0
  0
LINE
  5
A7
100
AcDbEntity
100
AcDbLine
  8
Top
 62
256
370
-1
  6
ByLayer
 10
-73.0
 20
70.5000000002464304
 30
0.0
 11
-73.0
 21
70.5000000002464304
 31
0.0
  0
ARC
  5
A8
100
AcDbEntity
  8
Top
 62
256
370
-1
  6
ByLayer
100
AcDbCircle
 10
-75.25
 20
70.5000000002464304
 30
0.0
 40
2.25
100
AcDbArc
 50
270.0
 51
0.0
  0
ARC
  5
A9
100
AcDbEntity
  8
Top
 62
256
370
-1
  6
ByLayer
100
AcDbCircle
 10
-79.75
 20
229.5000000000821387
 30
0.0
 40
2.25
100
AcDbArc
 50
90.0
 51
180.0
  0
LINE
  5
AA
100
AcDbEntity
100
AcDbLine
  8
Top
 62
256
370
-1
  6
ByLayer
 10
-82.0
 20
229.5000000000821387
 30
0.0
 11
-82.0
 21
229.5000000000821387
 31
0.0
  0
ARC
  5
AB
100
AcDbEntity
  8
Top
 62
256
370
-1
  6
ByLayer
100
AcDbCircle
 10
-79.75
 20
229.5000000000821387
 30
0.0
 40
2.25
100
AcDbArc
 50
180.0
 51
270.0
  0
LINE
  5
AC
100
AcDbEntity
100
AcDbLine
  8
Top
 62
256
370
-1
  6
ByLayer
 10
-75.25
 20
231.7500000000821387
 30
0.0
 11
-79.75
 21
231.7500000000821387
 31
0.0
  0
ARC
  5
AD
100
AcDbEntity
  8
Top
 62
256
370
-1
  6
ByLayer
100
AcDbCircle
 10
-75.25
 20
229.5000000000821387
 30
0.0
 40
2.25
100
AcDbArc
 50
0.0
 51
90.0
  0
LINE
  5
AE
100
AcDbEntity
100
AcDbLine
  8
Top
 62
256
370
-1
  6
ByLayer
 10
-79.75
 20
227.2500000000821387
 30
0.0
 11
-75.25
 21
227.2500000000821387
 31
0.0
  0
LINE
  5
AF
100
AcDbEntity
100
AcDbLine
  8
Top
 62
256
370
-1
  6
ByLayer
 10
-73.0
 20
229.5000000000821387
 30
0.0
 11
-73.0
 21
229.5000000000821387
 31
0.0
  0
ARC
  5
B0
100
AcDbEntity
  8
Top
 62
256
370
-1
  6
ByLayer
100
AcDbCircle
 10
-75.25
 20
229.5000000000821387
 30
0.0
 40
2.25
100
AcDbArc
 50
270.0
 51
0.0
  0
ARC
  5
B1
100
AcDbEntity
  8
Top
 62
256
370
-1
  6
ByLayer
100
AcDbCircle
 10
-58.0499999999999972
 20
31.5500000000000114
 30
0.0
 40
1.5
100
AcDbArc
 50
180.0
 51
270.0
  0
LINE
  5
B2
100
AcDbEntity
100
AcDbLine
  8
Top
 62
256
370
-1
  6
ByLayer
 10
-59.5499999999999972
 20
31.5500000000000185
 30
0.0
 11
-59.5499999999999972
 21
31.5500000000000185
 31
0.0
  0
ARC
  5
B3
100
AcDbEntity
  8
Top
 62
256
370
-1
  6
ByLayer
100
AcDbCircle
 10
-58.0499999999999972
 20
31.5500000000000114
 30
0.0
 40
1.5
100
AcDbArc
 50
90.0
 51
180.0
  0
ARC
  5
B4
100
AcDbEntity
  8
Top
 62
256
370
-1
  6
ByLayer
100
AcDbCircle
 10
-58.0499999999999901
 20
38.5500000000000185
 30
0.0
 40
1.5
100
AcDbArc
 50
180.0
 51
270.0
  0
LINE
  5
B5
100
AcDbEntity
100
AcDbLine
  8
Top
 62
256
370
-1
  6
ByLayer
 10
-59.5499999999999972
 20
38.5500000000000043
 30
0.0
 11
-59.5499999999999972
 21
38.5500000000000043
 31
0.0
  0
ARC
  5
B6
100
AcDbEntity
  8
Top
 62
256
370
-1
  6
ByLayer
100
AcDbCircle
 10
-58.0499999999999901
 20
38.5500000000000185
 30
0.0
 40
1.5
100
AcDbArc
 50
90.0
 51
180.0
  0
ARC
  5
B7
100
AcDbEntity
  8
Top
 62
256
370
-1
  6
ByLayer
100
AcDbCircle
 10
-58.0499999999999972
 20
45.5500000000000114
 30
0.0
 40
1.5
100
AcDbArc
 50
180.0
 51
270.0
  0
LINE
  5
B8
100
AcDbEntity
100
AcDbLine
  8
Top
 62
256
370
-1
  6
ByLayer
 10
-59.5499999999999901
 20
45.5500000000000185
 30
0.0
 11
-59.5499999999999901
 21
45.5500000000000185
 31
0.0
  0
ARC
  5
B9
100
AcDbEntity
  8
Top
 62
256
370
-1
  6
ByLayer
100
AcDbCircle
 10
-58.0499999999999972
 20
45.5500000000000114
 30
0.0
 40
1.5
100
AcDbArc
 50
90.0
 51
180.0
  0
ARC
  5
BA
100
AcDbEntity
  8
Top
 62
256
370
-1
  6
ByLayer
100
AcDbCircle
 10
-58.0499999999999901
 20
52.5500000000000114
 30
0.0
 40
1.5
100
AcDbArc
 50
180.0
 51
270.0
  0
LINE
  5
BB
100
AcDbEntity
100
AcDbLine
  8
Top
 62
256
370
-1
  6
ByLayer
 10
-59.5499999999999829
 20
52.5500000000000114
 30
0.0
 11
-59.5499999999999829
 21
52.5500000000000114
 31
0.0
  0
ARC
  5
BC
100
AcDbEntity
  8
Top
 62
256
370
-1
  6
ByLayer
100
AcDbCircle
 10
-58.0499999999999901
 20
52.5500000000000114
 30
0.0
 40
1.5
100
AcDbArc
 50
90.0
 51
180.0
  0
ARC
  5
BD
100
AcDbEntity
  8
Top
 62
256
370
-1
  6
ByLayer
100
AcDbCircle
 10
-58.0499999999999972
 20
59.5500000000000114
 30
0.0
 40
1.5
100
AcDbArc
 50
180.0
 51
270.0
  0
LINE
  5
BE
100
AcDbEntity
100
AcDbLine
  8
Top
 62
256
370
-1
  6
ByLayer
 10
-59.5500000000000114
 20
59.5499999999999972
 30
0.0
 11
-59.5500000000000114
 21
59.5499999999999972
 31
0.0
  0
ARC
  5
BF
100
AcDbEntity
  8
Top
 62
256
370
-1
  6
ByLayer
100
AcDbCircle
 10
-58.0499999999999972
 20
59.5500000000000114
 30
0.0
 40
1.5
100
AcDbArc
 50
90.0
 51
180.0
  0
ARC
  5
C0
100
AcDbEntity
  8
Top
 62
256
370
-1
  6
ByLayer
100
AcDbCircle
 10
-58.0499999999999901
 20
66.5500000000000114
 30
0.0
 40
1.5
100
AcDbArc
 50
180.0
 51
270.0
  0
LINE
  5
C1
100
AcDbEntity
100
AcDbLine
  8
Top
 62
256
370
-1
  6
ByLayer
 10
-59.5500000000000114
 20
66.5500000000000114
 30
0.0
 11
-59.5500000000000114
 21
66.5500000000000114
 31
0.0
  0
ARC
  5
C2
100
AcDbEntity
  8
Top
 62
256
370
-1
  6
ByLayer
100
AcDbCircle
 10
-58.0499999999999901
 20
66.5500000000000114
 30
0.0
 40
1.5
100
AcDbArc
 50
90.0
 51
180.0
  0
ARC
  5
C3
100
AcDbEntity
  8
Top
 62
256
370
-1
  6
ByLayer
100
AcDbCircle
 10
-58.0499999999999972
 20
73.5500000000000114
 30
0.0
 40
1.5
100
AcDbArc
 50
180.0
 51
270.0
  0
LINE
  5
C4
100
AcDbEntity
100
AcDbLine
  8
Top
 62
256
370
-1
  6
ByLayer
 10
-59.5499999999999829
 20
73.5500000000000114
 30
0.0
 11
-59.5499999999999829
 21
73.5500000000000114
 31
0.0
  0
ARC
  5
C5
100
AcDbEntity
  8
Top
 62
256
370
-1
  6
ByLayer
100
AcDbCircle
 10
-58.0499999999999972
 20
73.5500000000000114
 30
0.0
 40
1.5
100
AcDbArc
 50
90.0
 51
180.0
  0
ARC
  5
C6
100
AcDbEntity
  8
Top
 62
256
370
-1
  6
ByLayer
100
AcDbCircle
 10
-58.0500000000000114
 20
80.5500000000000114
 30
0.0
 40
1.5
100
AcDbArc
 50
180.0
 51
270.0
  0
LINE
  5
C7
100
AcDbEntity
100
AcDbLine
  8
Top
 62
256
370
-1
  6
ByLayer
 10
-59.5499999999999972
 20
80.5500000000000114
 30
0.0
 11
-59.5499999999999972
 21
80.5500000000000114
 31
0.0
  0
ARC
  5
C8
100
AcDbEntity
  8
Top
 62
256
370
-1
  6
ByLayer
100
AcDbCircle
 10
-58.0500000000000114
 20
80.5500000000000114
 30
0.0
 40
1.5
100
AcDbArc
 50
90.0
 51
180.0
  0
ARC
  5
C9
100
AcDbEntity
  8
Top
 62
256
370
-1
  6
ByLayer
100
AcDbCircle
 10
-58.0500000000000185
 20
87.5500000000000114
 30
0.0
 40
1.5
100
AcDbArc
 50
180.0
 51
270.0
  0
LINE
  5
CA
100
AcDbEntity
100
AcDbLine
  8
Top
 62
256
370
-1
  6
ByLayer
 10
-59.5499999999999829
 20
87.5500000000000114
 30
0.0
 11
-59.5499999999999829
 21
87.5500000000000114
 31
0.0
  0
ARC
  5
CB
100
AcDbEntity
  8
Top
 62
256
370
-1
  6
ByLayer
100
AcDbCircle
 10
-58.0500000000000185
 20
87.5500000000000114
 30
0.0
 40
1.5
100
AcDbArc
 50
90.0
 51
180.0
  0
ARC
  5
CC
100
AcDbEntity
  8
Top
 62
256
370
-1
  6
ByLayer
100
AcDbCircle
 10
-58.0499999999999616
 20
94.5500000000000256
 30
0.0
 40
1.5
100
AcDbArc
 50
180.0
 51
270.0
  0
LINE
  5
CD
100
AcDbEntity
100
AcDbLine
  8
Top
 62
256
370
-1
  6
ByLayer
 10
-59.5499999999999687
 20
94.5499999999999972
 30
0.0
 11
-59.5499999999999687
 21
94.5499999999999972
 31
0.0
  0
ARC
  5
CE
100
AcDbEntity
  8
Top
 62
256
370
-1
  6
ByLayer
100
AcDbCircle
 10
-58.0499999999999616
 20
94.5500000000000256
 30
0.0
 40
1.5
100
AcDbArc
 50
90.0
 51
180.0
  0
LINE
  5
CF
100
AcDbEntity
100
AcDbLine
  8
Top
 62
256
370
-1
  6
ByLayer
 10
-58.0499999999999972
 20
30.0500000000000114
 30
0.0
 11
-26.0499999999999972
 21
30.0500000000000043
 31
0.0
  0
ARC
  5
D0
100
AcDbEntity
  8
Top
 62
256
370
-1
  6
ByLayer
100
AcDbCircle
 10
-26.0499999999999972
 20
31.5500000000000043
 30
0.0
 40
1.5
100
AcDbArc
 50
270.0
 51
360.0
  0
LINE
  5
D1
100
AcDbEntity
100
AcDbLine
  8
Top
 62
256
370
-1
  6
ByLayer
 10
-58.0499999999999972
 20
33.0500000000000114
 30
0.0
 11
-26.0499999999999972
 21
33.0500000000000043
 31
0.0
  0
LINE
  5
D2
100
AcDbEntity
100
AcDbLine
  8
Top
 62
256
370
-1
  6
ByLayer
 10
-24.5499999999999972
 20
31.5500000000000114
 30
0.0
 11
-24.5499999999999972
 21
31.5500000000000114
 31
0.0
  0
ARC
  5
D3
100
AcDbEntity
  8
Top
 62
256
370
-1
  6
ByLayer
100
AcDbCircle
 10
-26.0499999999999972
 20
31.5500000000000043
 30
0.0
 40
1.5
100
AcDbArc
 50
360.0
 51
90.0
  0
LINE
  5
D4
100
AcDbEntity
100
AcDbLine
  8
Top
 62
256
370
-1
  6
ByLayer
 10
-58.0499999999999901
 20
37.0500000000000185
 30
0.0
 11
-26.0499999999999972
 21
37.0500000000000114
 31
0.0
  0
ARC
  5
D5
100
AcDbEntity
  8
Top
 62
256
370
-1
  6
ByLayer
100
AcDbCircle
 10
-26.0499999999999972
 20
38.5500000000000114
 30
0.0
 40
1.5
100
AcDbArc
 50
270.0
 51
360.0
  0
LINE
  5
D6
100
AcDbEntity
100
AcDbLine
  8
Top
 62
256
370
-1
  6
ByLayer
 10
-58.0499999999999972
 20
40.0500000000000043
 30
0.0
 11
-26.0499999999999901
 21
40.0499999999999972
 31
0.0
  0
LINE
  5
D7
100
AcDbEntity
100
AcDbLine
  8
Top
 62
256
370
-1
  6
ByLayer
 10
-24.5499999999999936
 20
38.5499999999999972
 30
0.0
 11
-24.5499999999999936
 21
38.5499999999999972
 31
0.0
  0
ARC
  5
D8
100
AcDbEntity
  8
Top
 62
256
370
-1
  6
ByLayer
100
AcDbCircle
 10
-26.0499999999999972
 20
38.5500000000000114
 30
0.0
 40
1.5
100
AcDbArc
 50
360.0
 51
90.0
  0
LINE
  5
D9
100
AcDbEntity
100
AcDbLine
  8
Top
 62
256
370
-1
  6
ByLayer
 10
-58.0500000000000043
 20
44.0500000000000043
 30
0.0
 11
-26.0499999999999865
 21
44.0500000000000043
 31
0.0
  0
ARC
  5
DA
100
AcDbEntity
  8
Top
 62
256
370
-1
  6
ByLayer
100
AcDbCircle
 10
-26.0499999999999972
 20
45.5500000000000114
 30
0.0
 40
1.5
100
AcDbArc
 50
270.0
 51
360.0
  0
LINE
  5
DB
100
AcDbEntity
100
AcDbLine
  8
Top
 62
256
370
-1
  6
ByLayer
 10
-58.0499999999999901
 20
47.0500000000000185
 30
0.0
 11
-26.0499999999999972
 21
47.0500000000000114
 31
0.0
  0
LINE
  5
DC
100
AcDbEntity
100
AcDbLine
  8
Top
 62
256
370
-1
  6
ByLayer
 10
-24.5499999999999972
 20
45.5500000000000114
 30
0.0
 11
-24.5499999999999972
 21
45.5500000000000114
 31
0.0
  0
ARC
  5
DD
100
AcDbEntity
  8
Top
 62
256
370
-1
  6
ByLayer
100
AcDbCircle
 10
-26.0499999999999972
 20
45.5500000000000114
 30
0.0
 40
1.5
100
AcDbArc
 50
360.0
 51
90.0
  0
LINE
  5
DE
100
AcDbEntity
100
AcDbLine
  8
Top
 62
256
370
-1
  6
ByLayer
 10
-58.0499999999999972
 20
51.0500000000000114
 30
0.0
 11
-26.0499999999999865
 21
51.0500000000000114
 31
0.0
  0
ARC
  5
DF
100
AcDbEntity
  8
Top
 62
256
370
-1
  6
ByLayer
100
AcDbCircle
 10
-26.0499999999999972
 20
52.5500000000000114
 30
0.0
 40
1.5
100
AcDbArc
 50
270.0
 51
360.0
  0
LINE
  5
E0
100
AcDbEntity
100
AcDbLine
  8
Top
 62
256
370
-1
  6
ByLayer
 10
-58.0499999999999972
 20
54.0500000000000114
 30
0.0
 11
-26.0499999999999829
 21
54.0499999999999972
 31
0.0
  0
LINE
  5
E1
100
AcDbEntity
100
AcDbLine
  8
Top
 62
256
370
-1
  6
ByLayer
 10
-24.5499999999999972
 20
52.5500000000000114
 30
0.0
 11
-24.5499999999999972
 21
52.5500000000000114
 31
0.0
  0
ARC
  5
E2
100
AcDbEntity
  8
Top
 62
256
370
-1
  6
ByLayer
100
AcDbCircle
 10
-26.0499999999999972
 20
52.5500000000000114
 30
0.0
 40
1.5
100
AcDbArc
 50
360.0
 51
90.0
  0
LINE
  5
E3
100
AcDbEntity
100
AcDbLine
  8
Top
 62
256
370
-1
  6
ByLayer
 10
-58.0499999999999829
 20
58.0500000000000114
 30
0.0
 11
-26.0500000000000007
 21
58.0500000000000114
 31
0.0
  0
ARC
  5
E4
100
AcDbEntity
  8
Top
 62
256
370
-1
  6
ByLayer
100
AcDbCircle
 10
-26.0499999999999865
 20
59.5500000000000114
 30
0.0
 40
1.5
100
AcDbArc
 50
270.0
 51
360.0
  0
LINE
  5
E5
100
AcDbEntity
100
AcDbLine
  8
Top
 62
256
370
-1
  6
ByLayer
 10
-58.0499999999999972
 20
61.0500000000000114
 30
0.0
 11
-26.0499999999999794
 21
61.0500000000000114
 31
0.0
  0
LINE
  5
E6
100
AcDbEntity
100
AcDbLine
  8
Top
 62
256
370
-1
  6
ByLayer
 10
-24.5499999999999723
 20
59.5499999999999972
 30
0.0
 11
-24.5499999999999723
 21
59.5499999999999972
 31
0.0
  0
ARC
  5
E7
100
AcDbEntity
  8
Top
 62
256
370
-1
  6
ByLayer
100
AcDbCircle
 10
-26.0499999999999865
 20
59.5500000000000114
 30
0.0
 40
1.5
100
AcDbArc
 50
360.0
 51
90.0
  0
LINE
  5
E8
100
AcDbEntity
100
AcDbLine
  8
Top
 62
256
370
-1
  6
ByLayer
 10
-58.0499999999999972
 20
65.0500000000000114
 30
0.0
 11
-26.0499999999999829
 21
65.0500000000000114
 31
0.0
  0
ARC
  5
E9
100
AcDbEntity
  8
Top
 62
256
370
-1
  6
ByLayer
100
AcDbCircle
 10
-26.0499999999999936
 20
66.5500000000000114
 30
0.0
 40
1.5
100
AcDbArc
 50
270.0
 51
360.0
  0
LINE
  5
EA
100
AcDbEntity
100
AcDbLine
  8
Top
 62
256
370
-1
  6
ByLayer
 10
-58.0499999999999901
 20
68.0500000000000114
 30
0.0
 11
-26.0499999999999901
 21
68.0500000000000114
 31
0.0
  0
LINE
  5
EB
100
AcDbEntity
100
AcDbLine
  8
Top
 62
256
370
-1
  6
ByLayer
 10
-24.5499999999999687
 20
66.5500000000000114
 30
0.0
 11
-24.5499999999999687
 21
66.5500000000000114
 31
0.0
  0
ARC
  5
EC
100
AcDbEntity
  8
Top
 62
256
370
-1
  6
ByLayer
100
AcDbCircle
 10
-26.0499999999999936
 20
66.5500000000000114
 30
0.0
 40
1.5
100
AcDbArc
 50
360.0
 51
90.0
  0
LINE
  5
ED
100
AcDbEntity
100
AcDbLine
  8
Top
 62
256
370
-1
  6
ByLayer
 10
-58.0500000000000043
 20
72.0500000000000114
 30
0.0
 11
-26.0499999999999758
 21
72.0500000000000114
 31
0.0
  0
ARC
  5
EE
100
AcDbEntity
  8
Top
 62
256
370
-1
  6
ByLayer
100
AcDbCircle
 10
-26.0499999999999829
 20
73.5500000000000114
 30
0.0
 40
1.5
100
AcDbArc
 50
270.0
 51
360.0
  0
LINE
  5
EF
100
AcDbEntity
100
AcDbLine
  8
Top
 62
256
370
-1
  6
ByLayer
 10
-58.0499999999999829
 20
75.0500000000000114
 30
0.0
 11
-26.0499999999999972
 21
75.0500000000000114
 31
0.0
  0
LINE
  5
F0
100
AcDbEntity
100
AcDbLine
  8
Top
 62
256
370
-1
  6
ByLayer
 10
-24.5499999999999901
 20
73.5500000000000114
 30
0.0
 11
-24.5499999999999901
 21
73.5500000000000114
 31
0.0
  0
ARC
  5
F1
100
AcDbEntity
  8
Top
 62
256
370
-1
  6
ByLayer
100
AcDbCircle
 10
-26.0499999999999829
 20
73.5500000000000114
 30
0.0
 40
1.5
100
AcDbArc
 50
360.0
 51
90.0
  0
LINE
  5
F2
100
AcDbEntity
100
AcDbLine
  8
Top
 62
256
370
-1
  6
ByLayer
 10
-58.0499999999999901
 20
79.0500000000000114
 30
0.0
 11
-26.0499999999999829
 21
79.0500000000000114
 31
0.0
  0
ARC
  5
F3
100
AcDbEntity
  8
Top
 62
256
370
-1
  6
ByLayer
100
AcDbCircle
 10
-26.0499999999999687
 20
80.5500000000000114
 30
0.0
 40
1.5
100
AcDbArc
 50
270.0
 51
360.0
  0
LINE
  5
F4
100
AcDbEntity
100
AcDbLine
  8
Top
 62
256
370
-1
  6
ByLayer
 10
-58.0499999999999901
 20
82.0500000000000114
 30
0.0
 11
-26.0499999999999829
 21
82.0500000000000114
 31
0.0
  0
LINE
  5
F5
100
AcDbEntity
100
AcDbLine
  8
Top
 62
256
370
-1
  6
ByLayer
 10
-24.5499999999999829
 20
80.5500000000000114
 30
0.0
 11
-24.5499999999999829
 21
80.5500000000000114
 31
0.0
  0
ARC
  5
F6
100
AcDbEntity
  8
Top
 62
256
370
-1
  6
ByLayer
100
AcDbCircle
 10
-26.0499999999999687
 20
80.5500000000000114
 30
0.0
 40
1.5
100
AcDbArc
 50
360.0
 51
90.0
  0
LINE
  5
F7
100
AcDbEntity
100
AcDbLine
  8
Top
 62
256
370
-1
  6
ByLayer
 10
-58.0499999999999972
 20
86.0500000000000114
 30
0.0
 11
-26.0499999999999723
 21
86.0500000000000114
 31
0.0
  0
ARC
  5
F8
100
AcDbEntity
  8
Top
 62
256
370
-1
  6
ByLayer
100
AcDbCircle
 10
-26.0499999999999545
 20
87.5499999999999972
 30
0.0
 40
1.5
100
AcDbArc
 50
270.0
 51
360.0
  0
LINE
  5
F9
100
AcDbEntity
100
AcDbLine
  8
Top
 62
256
370
-1
  6
ByLayer
 10
-58.0499999999999901
 20
89.0500000000000114
 30
0.0
 11
-26.0499999999999865
 21
89.0500000000000114
 31
0.0
  0
LINE
  5
FA
100
AcDbEntity
100
AcDbLine
  8
Top
 62
256
370
-1
  6
ByLayer
 10
-24.5499999999999901
 20
87.5500000000000114
 30
0.0
 11
-24.5499999999999901
 21
87.5500000000000114
 31
0.0
  0
ARC
  5
FB
100
AcDbEntity
  8
Top
 62
256
370
-1
  6
ByLayer
100
AcDbCircle
 10
-26.0499999999999545
 20
87.5499999999999972
 30
0.0
 40
1.5
100
AcDbArc
 50
360.0
 51
90.0
  0
LINE
  5
FC
100
AcDbEntity
100
AcDbLine
  8
Top
 62
256
370
-1
  6
ByLayer
 10
-58.0499999999999687
 20
93.0500000000000114
 30
0.0
 11
-26.0499999999999474
 21
93.0499999999999972
 31
0.0
  0
ARC
  5
FD
100
AcDbEntity
  8
Top
 62
256
370
-1
  6
ByLayer
100
AcDbCircle
 10
-26.0499999999999474
 20
94.5500000000000114
 30
0.0
 40
1.5
100
AcDbArc
 50
270.0
 51
360.0
  0
LINE
  5
FE
100
AcDbEntity
100
AcDbLine
  8
Top
 62
256
370
-1
  6
ByLayer
 10
-58.0499999999999403
 20
96.0500000000000114
 30
0.0
 11
-26.0499999999999687
 21
96.0500000000000114
 31
0.0
  0
LINE
  5
FF
100
AcDbEntity
100
AcDbLine
  8
Top
 62
256
370
-1
  6
ByLayer
 10
-24.5499999999999403
 20
94.5499999999999972
 30
0.0
 11
-24.5499999999999403
 21
94.5499999999999972
 31
0.0
  0
ARC
  5
100
100
AcDbEntity
  8
Top
 62
256
370
-1
  6
ByLayer
100
AcDbCircle
 10
-26.0499999999999474
 20
94.5500000000000114
 30
0.0
 40
1.5
100
AcDbArc
 50
360.0
 51
90.0
  0
ARC
  5
101
100
AcDbEntity
  8
Top
 62
256
370
-1
  6
ByLayer
100
AcDbCircle
 10
454.7700000000000387
 20
31.5500000000000114
 30
0.0
 40
1.5
100
AcDbArc
 50
180.0
 51
270.0
  0
LINE
  5
102
100
AcDbEntity
100
AcDbLine
  8
Top
 62
256
370
-1
  6
ByLayer
 10
453.2700000000000387
 20
31.5500000000000185
 30
0.0
 11
453.2700000000000387
 21
31.5500000000000185
 31
0.0
  0
ARC
  5
103
100
AcDbEntity
  8
Top
 62
256
370
-1
  6
ByLayer
100
AcDbCircle
 10
454.7700000000000387
 20
31.5500000000000114
 30
0.0
 40
1.5
100
AcDbArc
 50
90.0
 51
180.0
  0
ARC
  5
104
100
AcDbEntity
  8
Top
 62
256
370
-1
  6
ByLayer
100
AcDbCircle
 10
454.7700000000000387
 20
38.5500000000000185
 30
0.0
 40
1.5
100
AcDbArc
 50
180.0
 51
270.0
  0
LINE
  5
105
100
AcDbEntity
100
AcDbLine
  8
Top
 62
256
370
-1
  6
ByLayer
 10
453.2700000000000387
 20
38.5500000000000043
 30
0.0
 11
453.2700000000000387
 21
38.5500000000000043
 31
0.0
  0
ARC
  5
106
100
AcDbEntity
  8
Top
 62
256
370
-1
  6
ByLayer
100
AcDbCircle
 10
454.7700000000000387
 20
38.5500000000000185
 30
0.0
 40
1.5
100
AcDbArc
 50
90.0
 51
180.0
  0
ARC
  5
107
100
AcDbEntity
  8
Top
 62
256
370
-1
  6
ByLayer
100
AcDbCircle
 10
454.7700000000000387
 20
45.5500000000000114
 30
0.0
 40
1.5
100
AcDbArc
 50
180.0
 51
270.0
  0
LINE
  5
108
100
AcDbEntity
100
AcDbLine
  8
Top
 62
256
370
-1
  6
ByLayer
 10
453.2700000000000387
 20
45.5500000000000185
 30
0.0
 11
453.2700000000000387
 21
45.5500000000000185
 31
0.0
  0
ARC
  5
109
100
AcDbEntity
  8
Top
 62
256
370
-1
  6
ByLayer
100
AcDbCircle
 10
454.7700000000000387
 20
45.5500000000000114
 30
0.0
 40
1.5
100
AcDbArc
 50
90.0
 51
180.0
  0
ARC
  5
10A
100
AcDbEntity
  8
Top
 62
256
370
-1
  6
ByLayer
100
AcDbCircle
 10
454.7700000000000387
 20
52.5500000000000114
 30
0.0
 40
1.5
100
AcDbArc
 50
180.0
 51
270.0
  0
LINE
  5
10B
100
AcDbEntity
100
AcDbLine
  8
Top
 62
256
370
-1
  6
ByLayer
 10
453.2700000000000387
 20
52.5500000000000114
 30
0.0
 11
453.2700000000000387
 21
52.5500000000000114
 31
0.0
  0
ARC
  5
10C
100
AcDbEntity
  8
Top
 62
256
370
-1
  6
ByLayer
100
AcDbCircle
 10
454.7700000000000387
 20
52.5500000000000114
 30
0.0
 40
1.5
100
AcDbArc
 50
90.0
 51
180.0
  0
ARC
  5
10D
100
AcDbEntity
  8
Top
 62
256
370
-1
  6
ByLayer
100
AcDbCircle
 10
454.7700000000000387
 20
59.5500000000000114
 30
0.0
 40
1.5
100
AcDbArc
 50
180.0
 51
270.0
  0
LINE
  5
10E
100
AcDbEntity
100
AcDbLine
  8
Top
 62
256
370
-1
  6
ByLayer
 10
453.2700000000000387
 20
59.5499999999999972
 30
0.0
 11
453.2700000000000387
 21
59.5499999999999972
 31
0.0
  0
ARC
  5
10F
100
AcDbEntity
  8
Top
 62
256
370
-1
  6
ByLayer
100
AcDbCircle
 10
454.7700000000000387
 20
59.5500000000000114
 30
0.0
 40
1.5
100
AcDbArc
 50
90.0
 51
180.0
  0
ARC
  5
110
100
AcDbEntity
  8
Top
 62
256
370
-1
  6
ByLayer
100
AcDbCircle
 10
454.7700000000000387
 20
66.5500000000000114
 30
0.0
 40
1.5
100
AcDbArc
 50
180.0
 51
270.0
  0
LINE
  5
111
100
AcDbEntity
100
AcDbLine
  8
Top
 62
256
370
-1
  6
ByLayer
 10
453.2700000000000387
 20
66.5500000000000114
 30
0.0
 11
453.2700000000000387
 21
66.5500000000000114
 31
0.0
  0
ARC
  5
112
100
AcDbEntity
  8
Top
 62
256
370
-1
  6
ByLayer
100
AcDbCircle
 10
454.7700000000000387
 20
66.5500000000000114
 30
0.0
 40
1.5
100
AcDbArc
 50
90.0
 51
180.0
  0
ARC
  5
113
100
AcDbEntity
  8
Top
 62
256
370
-1
  6
ByLayer
100
AcDbCircle
 10
454.7700000000000387
 20
73.5500000000000114
 30
0.0
 40
1.5
100
AcDbArc
 50
180.0
 51
270.0
  0
LINE
  5
114
100
AcDbEntity
100
AcDbLine
  8
Top
 62
256
370
-1
  6
ByLayer
 10
453.2700000000000387
 20
73.5500000000000114
 30
0.0
 11
453.2700000000000387
 21
73.5500000000000114
 31
0.0
  0
ARC
  5
115
100
AcDbEntity
  8
Top
 62
256
370
-1
  6
ByLayer
100
AcDbCircle
 10
454.7700000000000387
 20
73.5500000000000114
 30
0.0
 40
1.5
100
AcDbArc
 50
90.0
 51
180.0
  0
ARC
  5
116
100
AcDbEntity
  8
Top
 62
256
370
-1
  6
ByLayer
100
AcDbCircle
 10
454.7700000000000387
 20
80.5500000000000114
 30
0.0
 40
1.5
100
AcDbArc
 50
180.0
 51
270.0
  0
LINE
  5
117
100
AcDbEntity
100
AcDbLine
  8
Top
 62
256
370
-1
  6
ByLayer
 10
453.2700000000000387
 20
80.5500000000000114
 30
0.0
 11
453.2700000000000387
 21
80.5500000000000114
 31
0.0
  0
ARC
  5
118
100
AcDbEntity
  8
Top
 62
256
370
-1
  6
ByLayer
100
AcDbCircle
 10
454.7700000000000387
 20
80.5500000000000114
 30
0.0
 40
1.5
100
AcDbArc
 50
90.0
 51
180.0
  0
ARC
  5
119
100
AcDbEntity
  8
Top
 62
256
370
-1
  6
ByLayer
100
AcDbCircle
 10
454.7700000000000387
 20
87.5500000000000114
 30
0.0
 40
1.5
100
AcDbArc
 50
180.0
 51
270.0
  0
LINE
  5
11A
100
AcDbEntity
100
AcDbLine
  8
Top
 62
256
370
-1
  6
ByLayer
 10
453.2700000000000387
 20
87.5500000000000114
 30
0.0
 11
453.2700000000000387
 21
87.5500000000000114
 31
0.0
  0
ARC
  5
11B
100
AcDbEntity
  8
Top
 62
256
370
-1
  6
ByLayer
100
AcDbCircle
 10
454.7700000000000387
 20
87.5500000000000114
 30
0.0
 40
1.5
100
AcDbArc
 50
90.0
 51
180.0
  0
ARC
  5
11C
100
AcDbEntity
  8
Top
 62
256
370
-1
  6
ByLayer
100
AcDbCircle
 10
454.7700000000000955
 20
94.5500000000000256
 30
0.0
 40
1.5
100
AcDbArc
 50
180.0
 51
270.0
  0
LINE
  5
11D
100
AcDbEntity
100
AcDbLine
  8
Top
 62
256
370
-1
  6
ByLayer
 10
453.2700000000000955
 20
94.5499999999999972
 30
0.0
 11
453.2700000000000955
 21
94.5499999999999972
 31
0.0
  0
ARC
  5
11E
100
AcDbEntity
  8
Top
 62
256
370
-1
  6
ByLayer
100
AcDbCircle
 10
454.7700000000000955
 20
94.5500000000000256
 30
0.0
 40
1.5
100
AcDbArc
 50
90.0
 51
180.0
  0
LINE
  5
11F
100
AcDbEntity
100
AcDbLine
  8
Top
 62
256
370
-1
  6
ByLayer
 10
454.7700000000000387
 20
30.0500000000000114
 30
0.0
 11
486.7700000000000387
 21
30.0500000000000043
 31
0.0
  0
ARC
  5
120
100
AcDbEntity
  8
Top
 62
256
370
-1
  6
ByLayer
100
AcDbCircle
 10
486.7700000000000387
 20
31.5500000000000043
 30
0.0
 40
1.5
100
AcDbArc
 50
270.0
 51
360.0
  0
LINE
  5
121
100
AcDbEntity
100
AcDbLine
  8
Top
 62
256
370
-1
  6
ByLayer
 10
454.7700000000000387
 20
33.0500000000000114
 30
0.0
 11
486.7700000000000387
 21
33.0500000000000043
 31
0.0
  0
LINE
  5
122
100
AcDbEntity
100
AcDbLine
  8
Top
 62
256
370
-1
  6
ByLayer
 10
488.2700000000000387
 20
31.5500000000000114
 30
0.0
 11
488.2700000000000387
 21
31.5500000000000114
 31
0.0
  0
ARC
  5
123
100
AcDbEntity
  8
Top
 62
256
370
-1
  6
ByLayer
100
AcDbCircle
 10
486.7700000000000387
 20
31.5500000000000043
 30
0.0
 40
1.5
100
AcDbArc
 50
360.0
 51
90.0
  0
LINE
  5
124
100
AcDbEntity
100
AcDbLine
  8
Top
 62
256
370
-1
  6
ByLayer
 10
454.7700000000000387
 20
37.0500000000000185
 30
0.0
 11
486.7700000000000387
 21
37.0500000000000114
 31
0.0
  0
ARC
  5
125
100
AcDbEntity
  8
Top
 62
256
370
-1
  6
ByLayer
100
AcDbCircle
 10
486.7700000000000387
 20
38.5500000000000114
 30
0.0
 40
1.5
100
AcDbArc
 50
270.0
 51
360.0
  0
LINE
  5
126
100
AcDbEntity
100
AcDbLine
  8
Top
 62
256
370
-1
  6
ByLayer
 10
454.7700000000000387
 20
40.0500000000000043
 30
0.0
 11
486.7700000000000387
 21
40.0499999999999972
 31
0.0
  0
LINE
  5
127
100
AcDbEntity
100
AcDbLine
  8
Top
 62
256
370
-1
  6
ByLayer
 10
488.2700000000000387
 20
38.5499999999999972
 30
0.0
 11
488.2700000000000387
 21
38.5499999999999972
 31
0.0
  0
ARC
  5
128
100
AcDbEntity
  8
Top
 62
256
370
-1
  6
ByLayer
100
AcDbCircle
 10
486.7700000000000387
 20
38.5500000000000114
 30
0.0
 40
1.5
100
AcDbArc
 50
360.0
 51
90.0
  0
LINE
  5
129
100
AcDbEntity
100
AcDbLine
  8
Top
 62
256
370
-1
  6
ByLayer
 10
454.7700000000000387
 20
44.0500000000000043
 30
0.0
 11
486.7700000000000387
 21
44.0500000000000043
 31
0.0
  0
ARC
  5
12A
100
AcDbEntity
  8
Top
 62
256
370
-1
  6
ByLayer
100
AcDbCircle
 10
486.7700000000000387
 20
45.5500000000000114
 30
0.0
 40
1.5
100
AcDbArc
 50
270.0
 51
360.0
  0
LINE
  5
12B
100
AcDbEntity
100
AcDbLine
  8
Top
 62
256
370
-1
  6
ByLayer
 10
454.7700000000000387
 20
47.0500000000000185
 30
0.0
 11
486.7700000000000387
 21
47.0500000000000114
 31
0.0
  0
LINE
  5
12C
100
AcDbEntity
100
AcDbLine
  8
Top
 62
256
370
-1
  6
ByLayer
 10
488.2700000000000387
 20
45.5500000000000114
 30
0.0
 11
488.2700000000000387
 21
45.5500000000000114
 31
0.0
  0
ARC
  5
12D
100
AcDbEntity
  8
Top
 62
256
370
-1
  6
ByLayer
100
AcDbCircle
 10
486.7700000000000387
 20
45.5500000000000114
 30
0.0
 40
1.5
100
AcDbArc
 50
360.0
 51
90.0
  0
LINE
  5
12E
100
AcDbEntity
100
AcDbLine
  8
Top
 62
256
370
-1
  6
ByLayer
 10
454.7700000000000387
 20
51.0500000000000114
 30
0.0
 11
486.7700000000000387
 21
51.0500000000000114
 31
0.0
  0
ARC
  5
12F
100
AcDbEntity
  8
Top
 62
256
370
-1
  6
ByLayer
100
AcDbCircle
 10
486.7700000000000387
 20
52.5500000000000114
 30
0.0
 40
1.5
100
AcDbArc
 50
270.0
 51
360.0
  0
LINE
  5
130
100
AcDbEntity
100
AcDbLine
  8
Top
 62
256
370
-1
  6
ByLayer
 10
454.7700000000000387
 20
54.0500000000000114
 30
0.0
 11
486.7700000000000387
 21
54.0499999999999972
 31
0.0
  0
LINE
  5
131
100
AcDbEntity
100
AcDbLine
  8
Top
 62
256
370
-1
  6
ByLayer
 10
488.2700000000000387
 20
52.5500000000000114
 30
0.0
 11
488.2700000000000387
 21
52.5500000000000114
 31
0.0
  0
ARC
  5
132
100
AcDbEntity
  8
Top
 62
256
370
-1
  6
ByLayer
100
AcDbCircle
 10
486.7700000000000387
 20
52.5500000000000114
 30
0.0
 40
1.5
100
AcDbArc
 50
360.0
 51
90.0
  0
LINE
  5
133
100
AcDbEntity
100
AcDbLine
  8
Top
 62
256
370
-1
  6
ByLayer
 10
454.7700000000000387
 20
58.0500000000000114
 30
0.0
 11
486.7700000000000387
 21
58.0500000000000114
 31
0.0
  0
ARC
  5
134
100
AcDbEntity
  8
Top
 62
256
370
-1
  6
ByLayer
100
AcDbCircle
 10
486.7700000000000387
 20
59.5500000000000114
 30
0.0
 40
1.5
100
AcDbArc
 50
270.0
 51
360.0
  0
LINE
  5
135
100
AcDbEntity
100
AcDbLine
  8
Top
 62
256
370
-1
  6
ByLayer
 10
454.7700000000000387
 20
61.0500000000000114
 30
0.0
 11
486.7700000000000387
 21
61.0500000000000114
 31
0.0
  0
LINE
  5
136
100
AcDbEntity
100
AcDbLine
  8
Top
 62
256
370
-1
  6
ByLayer
 10
488.2700000000000387
 20
59.5499999999999972
 30
0.0
 11
488.2700000000000387
 21
59.5499999999999972
 31
0.0
  0
ARC
  5
137
100
AcDbEntity
  8
Top
 62
256
370
-1
  6
ByLayer
100
AcDbCircle
 10
486.7700000000000387
 20
59.5500000000000114
 30
0.0
 40
1.5
100
AcDbArc
 50
360.0
 51
90.0
  0
LINE
  5
138
100
AcDbEntity
100
AcDbLine
  8
Top
 62
256
370
-1
  6
ByLayer
 10
454.7700000000000387
 20
65.0500000000000114
 30
0.0
 11
486.7700000000000387
 21
65.0500000000000114
 31
0.0
  0
ARC
  5
139
100
AcDbEntity
  8
Top
 62
256
370
-1
  6
ByLayer
100
AcDbCircle
 10
486.7700000000000387
 20
66.5500000000000114
 30
0.0
 40
1.5
100
AcDbArc
 50
270.0
 51
360.0
  0
LINE
  5
13A
100
AcDbEntity
100
AcDbLine
  8
Top
 62
256
370
-1
  6
ByLayer
 10
454.7700000000000387
 20
68.0500000000000114
 30
0.0
 11
486.7700000000000387
 21
68.0500000000000114
 31
0.0
  0
LINE
  5
13B
100
AcDbEntity
100
AcDbLine
  8
Top
 62
256
370
-1
  6
ByLayer
 10
488.2700000000000955
 20
66.5500000000000114
 30
0.0
 11
488.2700000000000955
 21
66.5500000000000114
 31
0.0
  0
ARC
  5
13C
100
AcDbEntity
  8
Top
 62
256
370
-1
  6
ByLayer
100
AcDbCircle
 10
486.7700000000000387
 20
66.5500000000000114
 30
0.0
 40
1.5
100
AcDbArc
 50
360.0
 51
90.0
  0
LINE
  5
13D
100
AcDbEntity
100
AcDbLine
  8
Top
 62
256
370
-1
  6
ByLayer
 10
454.7700000000000387
 20
72.0500000000000114
 30
0.0
 11
486.7700000000000387
 21
72.0500000000000114
 31
0.0
  0
ARC
  5
13E
100
AcDbEntity
  8
Top
 62
256
370
-1
  6
ByLayer
100
AcDbCircle
 10
486.7700000000000387
 20
73.5500000000000114
 30
0.0
 40
1.5
100
AcDbArc
 50
270.0
 51
360.0
  0
LINE
  5
13F
100
AcDbEntity
100
AcDbLine
  8
Top
 62
256
370
-1
  6
ByLayer
 10
454.7700000000000387
 20
75.0500000000000114
 30
0.0
 11
486.7700000000000387
 21
75.0500000000000114
 31
0.0
  0
LINE
  5
140
100
AcDbEntity
100
AcDbLine
  8
Top
 62
256
370
-1
  6
ByLayer
 10
488.2700000000000387
 20
73.5500000000000114
 30
0.0
 11
488.2700000000000387
 21
73.5500000000000114
 31
0.0
  0
ARC
  5
141
100
AcDbEntity
  8
Top
 62
256
370
-1
  6
ByLayer
100
AcDbCircle
 10
486.7700000000000387
 20
73.5500000000000114
 30
0.0
 40
1.5
100
AcDbArc
 50
360.0
 51
90.0
  0
LINE
  5
142
100
AcDbEntity
100
AcDbLine
  8
Top
 62
256
370
-1
  6
ByLayer
 10
454.7700000000000387
 20
79.0500000000000114
 30
0.0
 11
486.7700000000000387
 21
79.0500000000000114
 31
0.0
  0
ARC
  5
143
100
AcDbEntity
  8
Top
 62
256
370
-1
  6
ByLayer
100
AcDbCircle
 10
486.7700000000000955
 20
80.5500000000000114
 30
0.0
 40
1.5
100
AcDbArc
 50
270.0
 51
360.0
  0
LINE
  5
144
100
AcDbEntity
100
AcDbLine
  8
Top
 62
256
370
-1
  6
ByLayer
 10
454.7700000000000387
 20
82.0500000000000114
 30
0.0
 11
486.7700000000000387
 21
82.0500000000000114
 31
0.0
  0
LINE
  5
145
100
AcDbEntity
100
AcDbLine
  8
Top
 62
256
370
-1
  6
ByLayer
 10
488.2700000000000387
 20
80.5500000000000114
 30
0.0
 11
488.2700000000000387
 21
80.5500000000000114
 31
0.0
  0
ARC
  5
146
100
AcDbEntity
  8
Top
 62
256
370
-1
  6
ByLayer
100
AcDbCircle
 10
486.7700000000000955
 20
80.5500000000000114
 30
0.0
 40
1.5
100
AcDbArc
 50
360.0
 51
90.0
  0
LINE
  5
147
100
AcDbEntity
100
AcDbLine
  8
Top
 62
256
370
-1
  6
ByLayer
 10
454.7700000000000387
 20
86.0500000000000114
 30
0.0
 11
486.7700000000000387
 21
86.0500000000000114
 31
0.0
  0
ARC
  5
148
100
AcDbEntity
  8
Top
 62
256
370
-1
  6
ByLayer
100
AcDbCircle
 10
486.7700000000000955
 20
87.5499999999999972
 30
0.0
 40
1.5
100
AcDbArc
 50
270.0
 51
360.0
  0
LINE
  5
149
100
AcDbEntity
100
AcDbLine
  8
Top
 62
256
370
-1
  6
ByLayer
 10
454.7700000000000387
 20
89.0500000000000114
 30
0.0
 11
486.7700000000000387
 21
89.0500000000000114
 31
0.0
  0
LINE
  5
14A
100
AcDbEntity
100
AcDbLine
  8
Top
 62
256
370
-1
  6
ByLayer
 10
488.2700000000000387
 20
87.5500000000000114
 30
0.0
 11
488.2700000000000387
 21
87.5500000000000114
 31
0.0
  0
ARC
  5
14B
100
AcDbEntity
  8
Top
 62
256
370
-1
  6
ByLayer
100
AcDbCircle
 10
486.7700000000000955
 20
87.5499999999999972
 30
0.0
 40
1.5
100
AcDbArc
 50
360.0
 51
90.0
  0
LINE
  5
14C
100
AcDbEntity
100
AcDbLine
  8
Top
 62
256
370
-1
  6
ByLayer
 10
454.7700000000000955
 20
93.0500000000000114
 30
0.0
 11
486.7700000000000955
 21
93.0499999999999972
 31
0.0
  0
ARC
  5
14D
100
AcDbEntity
  8
Top
 62
256
370
-1
  6
ByLayer
100
AcDbCircle
 10
486.7700000000000955
 20
94.5500000000000114
 30
0.0
 40
1.5
100
AcDbArc
 50
270.0
 51
360.0
  0
LINE
  5
14E
100
AcDbEntity
100
AcDbLine
  8
Top
 62
256
370
-1
  6
ByLayer
 10
454.7700000000000955
 20
96.0500000000000114
 30
0.0
 11
486.7700000000000955
 21
96.0500000000000114
 31
0.0
  0
LINE
  5
14F
100
AcDbEntity
100
AcDbLine
  8
Top
 62
256
370
-1
  6
ByLayer
 10
488.2700000000000955
 20
94.5499999999999972
 30
0.0
 11
488.2700000000000955
 21
94.5499999999999972
 31
0.0
  0
ARC
  5
150
100
AcDbEntity
  8
Top
 62
256
370
-1
  6
ByLayer
100
AcDbCircle
 10
486.7700000000000955
 20
94.5500000000000114
 30
0.0
 40
1.5
100
AcDbArc
 50
360.0
 51
90.0
  0
ENDBLK
  5
151
100
AcDbEntity
  8
0
100
AcDbBlockEnd
  0
BLOCK
  5
152
100
AcDbEntity
  8
0
100
AcDbBlockBegin
  2
Front
 70
0
 10
0.0
 20
0.0
 30
0.0
  3
Front
  1

  0
LINE
  5
153
100
AcDbEntity
100
AcDbLine
  8
Front
 62
256
370
-1
  6
ByLayer
 10
-26.9399999999999977
 20
0.0
 30
0.0
 11
455.660000000000025
 21
0.0
 31
0.0
  0
LINE
  5
154
100
AcDbEntity
100
AcDbLine
  8
Front
 62
256
370
-1
  6
ByLayer
 10
455.660000000000025
 20
0.0
 30
0.0
 11
455.660000000000025
 21
88.1000000000000227
 31
0.0
  0
LINE
  5
155
100
AcDbEntity
100
AcDbLine
  8
Front
 62
256
370
-1
  6
ByLayer
 10
455.660000000000025
 20
88.1000000000000227
 30
0.0
 11
-26.9399999999999977
 21
88.1000000000000227
 31
0.0
  0
LINE
  5
156
100
AcDbEntity
100
AcDbLine
  8
Front
 62
256
370
-1
  6
ByLayer
 10
-26.9399999999999977
 20
88.1000000000000227
 30
0.0
 11
-26.9399999999999977
 21
0.0
 31
0.0
  0
ARC
  5
157
100
AcDbEntity
  8
Front
 62
256
370
-1
  6
ByLayer
100
AcDbCircle
 10
-20.3399999999999963
 20
66.2799999999999727
 30
0.0
 40
3.3999999999999999
100
AcDbArc
 50
90.0
 51
180.0
  0
ARC
  5
158
100
AcDbEntity
  8
Front
 62
256
370
-1
  6
ByLayer
100
AcDbCircle
 10
-20.3399999999999963
 20
66.2799999999999727
 30
0.0
 40
3.3999999999999999
100
AcDbArc
 50
180.0
 51
270.0
  0
LINE
  5
159
100
AcDbEntity
100
AcDbLine
  8
Front
 62
256
370
-1
  6
ByLayer
 10
-20.3399999999999963
 20
62.8799999999999955
 30
0.0
 11
-16.8399999999999963
 21
62.8799999999999955
 31
0.0
  0
ARC
  5
15A
100
AcDbEntity
  8
Front
 62
256
370
-1
  6
ByLayer
100
AcDbCircle
 10
-16.8399999999999963
 20
66.2799999999999727
 30
0.0
 40
3.3999999999999999
100
AcDbArc
 50
270.0
 51
0.0
  0
LINE
  5
15B
100
AcDbEntity
100
AcDbLine
  8
Front
 62
256
370
-1
  6
ByLayer
 10
-16.8399999999999963
 20
69.6800000000000637
 30
0.0
 11
-20.3399999999999963
 21
69.6800000000000637
 31
0.0
  0
LINE
  5
15C
100
AcDbEntity
100
AcDbLine
  8
Front
 62
256
370
-1
  6
ByLayer
 10
-13.4399999999999977
 20
66.2799999999999727
 30
0.0
 11
-13.4399999999999977
 21
66.2799999999999727
 31
0.0
  0
ARC
  5
15D
100
AcDbEntity
  8
Front
 62
256
370
-1
  6
ByLayer
100
AcDbCircle
 10
-16.8399999999999963
 20
66.2799999999999727
 30
0.0
 40
3.3999999999999999
100
AcDbArc
 50
0.0
 51
90.0
  0
ARC
  5
15E
100
AcDbEntity
  8
Front
 62
256
370
-1
  6
ByLayer
100
AcDbCircle
 10
-20.3399999999999999
 20
21.8300000000000409
 30
0.0
 40
3.3999999999999999
100
AcDbArc
 50
90.0
 51
180.0
  0
LINE
  5
15F
100
AcDbEntity
100
AcDbLine
  8
Front
 62
256
370
-1
  6
ByLayer
 10
-16.8399999999999963
 20
25.2300000000000182
 30
0.0
 11
-20.3399999999999999
 21
25.2300000000000182
 31
0.0
  0
ARC
  5
160
100
AcDbEntity
  8
Front
 62
256
370
-1
  6
ByLayer
100
AcDbCircle
 10
-16.8399999999999963
 20
21.8300000000000409
 30
0.0
 40
3.3999999999999999
100
AcDbArc
 50
0.0
 51
90.0
  0
LINE
  5
161
100
AcDbEntity
100
AcDbLine
  8
Front
 62
256
370
-1
  6
ByLayer
 10
-13.4399999999999977
 20
21.8300000000000409
 30
0.0
 11
-13.4399999999999977
 21
21.8300000000000409
 31
0.0
  0
ARC
  5
162
100
AcDbEntity
  8
Front
 62
256
370
-1
  6
ByLayer
100
AcDbCircle
 10
-16.8399999999999963
 20
21.8300000000000409
 30
0.0
 40
3.3999999999999999
100
AcDbArc
 50
269.9999999999999432
 51
0.0
  0
LINE
  5
163
100
AcDbEntity
100
AcDbLine
  8
Front
 62
256
370
-1
  6
ByLayer
 10
-20.3399999999999963
 20
18.42999999999995
 30
0.0
 11
-16.8399999999999999
 21
18.42999999999995
 31
0.0
  0
LINE
  5
164
100
AcDbEntity
100
AcDbLine
  8
Front
 62
256
370
-1
  6
ByLayer
 10
-23.7399999999999984
 20
21.8300000000000409
 30
0.0
 11
-23.7399999999999984
 21
21.8300000000000409
 31
0.0
  0
ARC
  5
165
100
AcDbEntity
  8
Front
 62
256
370
-1
  6
ByLayer
100
AcDbCircle
 10
-20.3399999999999963
 20
21.8300000000000409
 30
0.0
 40
3.3999999999999999
100
AcDbArc
 50
180.0
 51
270.0
  0
ARC
  5
166
100
AcDbEntity
  8
Front
 62
256
370
-1
  6
ByLayer
100
AcDbCircle
 10
445.3600000000000136
 20
66.2799999999999727
 30
0.0
 40
3.3999999999999999
100
AcDbArc
 50
90.0
 51
180.0
  0
LINE
  5
167
100
AcDbEntity
100
AcDbLine
  8
Front
 62
256
370
-1
  6
ByLayer
 10
448.8600000000000705
 20
69.6800000000000637
 30
0.0
 11
445.3600000000000136
 21
69.6800000000000637
 31
0.0
  0
ARC
  5
168
100
AcDbEntity
  8
Front
 62
256
370
-1
  6
ByLayer
100
AcDbCircle
 10
448.8600000000000705
 20
66.2799999999999727
 30
0.0
 40
3.3999999999999999
100
AcDbArc
 50
0.0
 51
90.0
  0
LINE
  5
169
100
AcDbEntity
100
AcDbLine
  8
Front
 62
256
370
-1
  6
ByLayer
 10
452.2600000000000477
 20
66.2799999999999727
 30
0.0
 11
452.2600000000000477
 21
66.2799999999999727
 31
0.0
  0
ARC
  5
16A
100
AcDbEntity
  8
Front
 62
256
370
-1
  6
ByLayer
100
AcDbCircle
 10
448.8600000000000705
 20
66.2799999999999727
 30
0.0
 40
3.3999999999999999
100
AcDbArc
 50
270.0
 51
0.0
  0
LINE
  5
16B
100
AcDbEntity
100
AcDbLine
  8
Front
 62
256
370
-1
  6
ByLayer
 10
441.9600000000000364
 20
66.2799999999999727
 30
0.0
 11
441.9600000000000364
 21
66.2799999999999727
 31
0.0
  0
LINE
  5
16C
100
AcDbEntity
100
AcDbLine
  8
Front
 62
256
370
-1
  6
ByLayer
 10
445.3600000000000136
 20
62.8799999999999955
 30
0.0
 11
448.8600000000000705
 21
62.8799999999999955
 31
0.0
  0
ARC
  5
16D
100
AcDbEntity
  8
Front
 62
256
370
-1
  6
ByLayer
100
AcDbCircle
 10
445.3600000000000136
 20
66.2799999999999727
 30
0.0
 40
3.3999999999999999
100
AcDbArc
 50
180.0
 51
270.0
  0
ARC
  5
16E
100
AcDbEntity
  8
Front
 62
256
370
-1
  6
ByLayer
100
AcDbCircle
 10
445.3600000000000136
 20
21.8300000000000409
 30
0.0
 40
3.3999999999999999
100
AcDbArc
 50
90.0
 51
180.0
  0
LINE
  5
16F
100
AcDbEntity
100
AcDbLine
  8
Front
 62
256
370
-1
  6
ByLayer
 10
448.8600000000000705
 20
25.2300000000000182
 30
0.0
 11
445.3600000000000136
 21
25.2300000000000182
 31
0.0
  0
ARC
  5
170
100
AcDbEntity
  8
Front
 62
256
370
-1
  6
ByLayer
100
AcDbCircle
 10
448.8600000000000705
 20
21.8300000000000409
 30
0.0
 40
3.3999999999999999
100
AcDbArc
 50
0.0
 51
90.0
  0
LINE
  5
171
100
AcDbEntity
100
AcDbLine
  8
Front
 62
256
370
-1
  6
ByLayer
 10
452.2600000000000477
 20
21.8300000000000409
 30
0.0
 11
452.2600000000000477
 21
21.8300000000000409
 31
0.0
  0
ARC
  5
172
100
AcDbEntity
  8
Front
 62
256
370
-1
  6
ByLayer
100
AcDbCircle
 10
448.8600000000000705
 20
21.8300000000000409
 30
0.0
 40
3.3999999999999999
100
AcDbArc
 50
270.0
 51
0.0
  0
LINE
  5
173
100
AcDbEntity
100
AcDbLine
  8
Front
 62
256
370
-1
  6
ByLayer
 10
441.9600000000000364
 20
21.8300000000000409
 30
0.0
 11
441.9600000000000364
 21
21.8300000000000409
 31
0.0
  0
LINE
  5
174
100
AcDbEntity
100
AcDbLine
  8
Front
 62
256
370
-1
  6
ByLayer
 10
445.3600000000000136
 20
18.42999999999995
 30
0.0
 11
448.8600000000000705
 21
18.42999999999995
 31
0.0
  0
ARC
  5
175
100
AcDbEntity
  8
Front
 62
256
370
-1
  6
ByLayer
100
AcDbCircle
 10
445.3600000000000136
 20
21.8300000000000409
 30
0.0
 40
3.3999999999999999
100
AcDbArc
 50
180.0
 51
270.0
  0
CIRCLE
  5
176
100
AcDbEntity
100
AcDbCircle
  8
Front
 62
256
370
-1
  6
ByLayer
 10
9.5999999999999996
 20
44.0500000000000114
 30
0.0
 40
2.25
  0
CIRCLE
  5
177
100
AcDbEntity
100
AcDbCircle
  8
Front
 62
256
370
-1
  6
ByLayer
 10
419.1200000000000045
 20
44.0500000000000114
 30
0.0
 40
2.25
  0
CIRCLE
  5
178
100
AcDbEntity
100
AcDbCircle
  8
Front
 62
256
370
-1
  6
ByLayer
 10
45.0500000001643031
 20
80.0000000000000284
 30
0.0
 40
2.25
  0
CIRCLE
  5
179
100
AcDbEntity
100
AcDbCircle
  8
Front
 62
256
370
-1
  6
ByLayer
 10
214.3600000000000136
 20
80.0000000000000284
 30
0.0
 40
2.25
  0
CIRCLE
  5
17A
100
AcDbEntity
100
AcDbCircle
  8
Front
 62
256
370
-1
  6
ByLayer
 10
383.6700000001643502
 20
80.0000000000000284
 30
0.0
 40
2.25
  0
LINE
  5
17B
100
AcDbEntity
100
AcDbLine
  8
Front
 62
256
370
-1
  6
ByLayer
 10
-23.7399999999999984
 20
52.2799999999999727
 30
0.0
 11
-23.7399999999999984
 21
52.2799999999999727
 31
0.0
  0
LINE
  5
17C
100
AcDbEntity
100
AcDbLine
  8
Front
 62
256
370
-1
  6
ByLayer
 10
489.0800000000000409
 20
21.8300000000000409
 30
0.0
 11
489.0800000000000409
 21
21.8300000000000409
 31
0.0
  0
LINE
  5
17D
100
AcDbEntity
100
AcDbLine
  8
Front
 62
256
370
-1
  6
ByLayer
 10
489.0800000000000409
 20
52.2799999999999727
 30
0.0
 11
489.0800000000000409
 21
52.2799999999999727
 31
0.0
  0
ENDBLK
  5
17E
100
AcDbEntity
  8
0
100
AcDbBlockEnd
  0
BLOCK
  5
17F
100
AcDbEntity
  8
0
100
AcDbBlockBegin
  2
Bottom
 70
0
 10
0.0
 20
0.0
 30
0.0
  3
Bottom
  1

  0
LINE
  5
180
100
AcDbEntity
100
AcDbLine
  8
Bottom
 62
256
370
-1
  6
ByLayer
 10
1.5
 20
2.0
 30
0.0
 11
427.2200000000000273
 21
2.0
 31
0.0
  0
LINE
  5
181
100
AcDbEntity
100
AcDbLine
  8
Bottom
 62
256
370
-1
  6
ByLayer
 10
427.2200000000000273
 20
297.9999999999999432
 30
0.0
 11
1.5
 21
297.9999999999999432
 31
0.0
  0
LINE
  5
182
100
AcDbEntity
100
AcDbLine
  8
Bottom
 62
256
370
-1
  6
ByLayer
 10
1.5
 20
297.9999999999999432
 30
0.0
 11
1.5
 21
383.5999999999999091
 31
0.0
  0
LINE
  5
183
100
AcDbEntity
100
AcDbLine
  8
Bottom
 62
256
370
-1
  6
ByLayer
 10
1.5
 20
383.5999999999999091
 30
0.0
 11
427.2200000000000273
 21
383.5999999999999091
 31
0.0
  0
LINE
  5
184
100
AcDbEntity
100
AcDbLine
  8
Bottom
 62
256
370
-1
  6
ByLayer
 10
427.2200000000000273
 20
383.5999999999999091
 30
0.0
 11
427.2200000000000273
 21
297.9999999999999432
 31
0.0
  0
ARC
  5
185
100
AcDbEntity
  8
Bottom
 62
256
370
-1
  6
ByLayer
100
AcDbCircle
 10
432.220003735375883
 20
234.500003735622272
 30
0.0
 40
4.9999962646255964
100
AcDbArc
 50
359.9999571919562413
 51
90.0000428042881992
  0
LINE
  5
186
100
AcDbEntity
100
AcDbLine
  8
Bottom
 62
256
370
-1
  6
ByLayer
 10
437.2200000000000841
 20
234.4999999999184865
 30
0.0
 11
437.2200000000000273
 21
224.5000000002457909
 31
0.0
  0
ARC
  5
187
100
AcDbEntity
  8
Bottom
 62
256
370
-1
  6
ByLayer
100
AcDbCircle
 10
432.2200037357050633
 20
224.4999962645421192
 30
0.0
 40
4.9999962642963309
100
AcDbArc
 50
269.9999571919390178
 51
0.0000428080437462
  0
LINE
  5
188
100
AcDbEntity
100
AcDbLine
  8
Bottom
 62
256
370
-1
  6
ByLayer
 10
432.2199999999997999
 20
219.5000000002470983
 30
0.0
 11
423.7200000000002547
 21
219.5000000002461888
 31
0.0
  0
LINE
  5
189
100
AcDbEntity
100
AcDbLine
  8
Bottom
 62
256
370
-1
  6
ByLayer
 10
423.7200000000002547
 20
239.5000000002467004
 30
0.0
 11
432.2199999999997999
 21
239.5000000002465299
 31
0.0
  0
LINE
  5
18A
100
AcDbEntity
100
AcDbLine
  8
Bottom
 62
256
370
-1
  6
ByLayer
 10
423.7200000000002547
 20
240.5000000002452794
 30
0.0
 11
423.7200000000002547
 21
239.5000000002465299
 31
0.0
  0
LINE
  5
18B
100
AcDbEntity
100
AcDbLine
  8
Bottom
 62
256
370
-1
  6
ByLayer
 10
423.7200000000002547
 20
219.5000000002464731
 30
0.0
 11
423.7200000000002547
 21
218.5000000002465868
 31
0.0
  0
CIRCLE
  5
18C
100
AcDbEntity
100
AcDbCircle
  8
Bottom
 62
256
370
-1
  6
ByLayer
 10
432.3200000000175578
 20
229.5000000002464162
 30
0.0
 40
1.75
  0
ARC
  5
18D
100
AcDbEntity
  8
Bottom
 62
256
370
-1
  6
ByLayer
100
AcDbCircle
 10
432.220003735375883
 20
75.5000037356222862
 30
0.0
 40
4.9999962646255964
100
AcDbArc
 50
359.9999571919562413
 51
90.0000428042881992
  0
LINE
  5
18E
100
AcDbEntity
100
AcDbLine
  8
Bottom
 62
256
370
-1
  6
ByLayer
 10
437.2200000000000841
 20
75.4999999999185007
 30
0.0
 11
437.2200000000000273
 21
65.5000000002458052
 31
0.0
  0
ARC
  5
18F
100
AcDbEntity
  8
Bottom
 62
256
370
-1
  6
ByLayer
100
AcDbCircle
 10
432.2200037357050633
 20
65.4999962645421334
 30
0.0
 40
4.9999962642963309
100
AcDbArc
 50
269.9999571919390178
 51
0.0000428080437462
  0
LINE
  5
190
100
AcDbEntity
100
AcDbLine
  8
Bottom
 62
256
370
-1
  6
ByLayer
 10
432.2199999999997999
 20
60.5000000002471126
 30
0.0
 11
423.7200000000002547
 21
60.5000000002462031
 31
0.0
  0
LINE
  5
191
100
AcDbEntity
100
AcDbLine
  8
Bottom
 62
256
370
-1
  6
ByLayer
 10
423.7200000000002547
 20
80.5000000002467146
 30
0.0
 11
432.2199999999997999
 21
80.5000000002465441
 31
0.0
  0
LINE
  5
192
100
AcDbEntity
100
AcDbLine
  8
Bottom
 62
256
370
-1
  6
ByLayer
 10
423.7200000000002547
 20
81.5000000002452936
 30
0.0
 11
423.7200000000002547
 21
80.5000000002465441
 31
0.0
  0
LINE
  5
193
100
AcDbEntity
100
AcDbLine
  8
Bottom
 62
256
370
-1
  6
ByLayer
 10
423.7200000000002547
 20
60.5000000002464873
 30
0.0
 11
423.7200000000002547
 21
59.500000000246601
 31
0.0
  0
CIRCLE
  5
194
100
AcDbEntity
100
AcDbCircle
  8
Bottom
 62
256
370
-1
  6
ByLayer
 10
432.3200000000175578
 20
70.5000000002464304
 30
0.0
 40
1.75
  0
LINE
  5
195
100
AcDbEntity
100
AcDbLine
  8
Bottom
 62
256
370
-1
  6
ByLayer
 10
427.2200000000000273
 20
81.5000000002465441
 30
0.0
 11
423.7200000000002547
 21
81.500000000246601
 31
0.0
  0
ARC
  5
196
100
AcDbEntity
  8
Bottom
 62
256
370
-1
  6
ByLayer
100
AcDbCircle
 10
-3.5000037353758566
 20
224.4999962645420055
 30
0.0
 40
4.9999962646255964
100
AcDbArc
 50
179.9999571919562129
 51
270.0000428042881708
  0
LINE
  5
197
100
AcDbEntity
100
AcDbLine
  8
Bottom
 62
256
370
-1
  6
ByLayer
 10
-8.5000000000000568
 20
224.5000000002457909
 30
0.0
 11
-8.5000000000000018
 21
234.4999999999184865
 31
0.0
  0
ARC
  5
198
100
AcDbEntity
  8
Bottom
 62
256
370
-1
  6
ByLayer
100
AcDbCircle
 10
-3.5000037357050333
 20
234.5000037356221583
 30
0.0
 40
4.9999962642963309
100
AcDbArc
 50
89.9999571919390036
 51
180.0000428080437587
  0
LINE
  5
199
100
AcDbEntity
100
AcDbLine
  8
Bottom
 62
256
370
-1
  6
ByLayer
 10
-3.4999999999997726
 20
239.4999999999171791
 30
0.0
 11
4.999999999999778
 21
239.4999999999180886
 31
0.0
  0
LINE
  5
19A
100
AcDbEntity
100
AcDbLine
  8
Bottom
 62
256
370
-1
  6
ByLayer
 10
4.9999999999997762
 20
219.499999999917577
 30
0.0
 11
-3.4999999999997744
 21
219.4999999999177476
 31
0.0
  0
LINE
  5
19B
100
AcDbEntity
100
AcDbLine
  8
Bottom
 62
256
370
-1
  6
ByLayer
 10
4.9999999999997762
 20
218.4999999999189981
 30
0.0
 11
4.9999999999997753
 21
219.4999999999177476
 31
0.0
  0
LINE
  5
19C
100
AcDbEntity
100
AcDbLine
  8
Bottom
 62
256
370
-1
  6
ByLayer
 10
4.999999999999778
 20
239.4999999999178044
 30
0.0
 11
4.9999999999997735
 21
240.4999999999176907
 31
0.0
  0
CIRCLE
  5
19D
100
AcDbEntity
100
AcDbCircle
  8
Bottom
 62
256
370
-1
  6
ByLayer
 10
-3.6000000000175305
 20
229.4999999999178613
 30
0.0
 40
1.75
  0
ARC
  5
19E
100
AcDbEntity
  8
Bottom
 62
256
370
-1
  6
ByLayer
100
AcDbCircle
 10
-3.5000037353758566
 20
65.4999962645420197
 30
0.0
 40
4.9999962646255964
100
AcDbArc
 50
179.9999571919562129
 51
270.0000428042881708
  0
LINE
  5
19F
100
AcDbEntity
100
AcDbLine
  8
Bottom
 62
256
370
-1
  6
ByLayer
 10
-8.5000000000000568
 20
65.5000000002458052
 30
0.0
 11
-8.5000000000000018
 21
75.4999999999185007
 31
0.0
  0
ARC
  5
1A0
100
AcDbEntity
  8
Bottom
 62
256
370
-1
  6
ByLayer
100
AcDbCircle
 10
-3.5000037357050333
 20
75.5000037356221725
 30
0.0
 40
4.9999962642963309
100
AcDbArc
 50
89.9999571919390036
 51
180.0000428080437587
  0
LINE
  5
1A1
100
AcDbEntity
100
AcDbLine
  8
Bottom
 62
256
370
-1
  6
ByLayer
 10
-3.4999999999997726
 20
80.4999999999171933
 30
0.0
 11
4.999999999999778
 21
80.4999999999181028
 31
0.0
  0
LINE
  5
1A2
100
AcDbEntity
100
AcDbLine
  8
Bottom
 62
256
370
-1
  6
ByLayer
 10
4.9999999999997762
 20
60.4999999999175913
 30
0.0
 11
-3.4999999999997744
 21
60.4999999999177618
 31
0.0
  0
LINE
  5
1A3
100
AcDbEntity
100
AcDbLine
  8
Bottom
 62
256
370
-1
  6
ByLayer
 10
4.9999999999997762
 20
59.4999999999190123
 30
0.0
 11
4.9999999999997753
 21
60.4999999999177618
 31
0.0
  0
LINE
  5
1A4
100
AcDbEntity
100
AcDbLine
  8
Bottom
 62
256
370
-1
  6
ByLayer
 10
4.999999999999778
 20
80.4999999999178186
 30
0.0
 11
4.9999999999997735
 21
81.4999999999177049
 31
0.0
  0
CIRCLE
  5
1A5
100
AcDbEntity
100
AcDbCircle
  8
Bottom
 62
256
370
-1
  6
ByLayer
 10
-3.6000000000175305
 20
70.4999999999178755
 30
0.0
 40
1.75
  0
LINE
  5
1A6
100
AcDbEntity
100
AcDbLine
  8
Bottom
 62
256
370
-1
  6
ByLayer
 10
1.5
 20
59.4999999999177618
 30
0.0
 11
1.5
 21
2.0
 31
0.0
  0
LINE
  5
1A7
100
AcDbEntity
100
AcDbLine
  8
Bottom
 62
256
370
-1
  6
ByLayer
 10
1.5
 20
59.4999999999177618
 30
0.0
 11
4.9999999999997637
 21
59.4999999999177049
 31
0.0
  0
LINE
  5
1A8
100
AcDbEntity
100
AcDbLine
  8
Bottom
 62
256
370
-1
  6
ByLayer
 10
4.9999999999997735
 20
81.4999999999177049
 30
0.0
 11
1.5
 21
81.4999999999178044
 31
0.0
  0
LINE
  5
1A9
100
AcDbEntity
100
AcDbLine
  8
Bottom
 62
256
370
-1
  6
ByLayer
 10
1.5
 20
218.4999999999177476
 30
0.0
 11
1.5
 21
81.4999999999178044
 31
0.0
  0
LINE
  5
1AA
100
AcDbEntity
100
AcDbLine
  8
Bottom
 62
256
370
-1
  6
ByLayer
 10
1.5
 20
218.4999999999177476
 30
0.0
 11
4.9999999999997637
 21
218.4999999999176907
 31
0.0
  0
LINE
  5
1AB
100
AcDbEntity
100
AcDbLine
  8
Bottom
 62
256
370
-1
  6
ByLayer
 10
1.5
 20
297.9999999999999432
 30
0.0
 11
1.5
 21
240.4999999999178044
 31
0.0
  0
LINE
  5
1AC
100
AcDbEntity
100
AcDbLine
  8
Bottom
 62
256
370
-1
  6
ByLayer
 10
4.9999999999997735
 20
240.4999999999176907
 30
0.0
 11
1.5
 21
240.4999999999178044
 31
0.0
  0
LINE
  5
1AD
100
AcDbEntity
100
AcDbLine
  8
Bottom
 62
256
370
-1
  6
ByLayer
 10
427.2200000000000273
 20
2.0
 30
0.0
 11
427.2200000000000273
 21
59.5000000002464944
 31
0.0
  0
LINE
  5
1AE
100
AcDbEntity
100
AcDbLine
  8
Bottom
 62
256
370
-1
  6
ByLayer
 10
423.7200000000002547
 20
59.500000000246601
 30
0.0
 11
427.2200000000000273
 21
59.5000000002464944
 31
0.0
  0
LINE
  5
1AF
100
AcDbEntity
100
AcDbLine
  8
Bottom
 62
256
370
-1
  6
ByLayer
 10
427.2200000000000273
 20
81.5000000002465441
 30
0.0
 11
427.2200000000000273
 21
218.5000000002464731
 31
0.0
  0
LINE
  5
1B0
100
AcDbEntity
100
AcDbLine
  8
Bottom
 62
256
370
-1
  6
ByLayer
 10
423.7200000000002547
 20
218.5000000002465868
 30
0.0
 11
427.2200000000000273
 21
218.5000000002464731
 31
0.0
  0
LINE
  5
1B1
100
AcDbEntity
100
AcDbLine
  8
Bottom
 62
256
370
-1
  6
ByLayer
 10
427.2200000000000273
 20
240.5000000002465299
 30
0.0
 11
427.2200000000000273
 21
297.9999999999999432
 31
0.0
  0
LINE
  5
1B2
100
AcDbEntity
100
AcDbLine
  8
Bottom
 62
256
370
-1
  6
ByLayer
 10
427.2200000000000273
 20
240.5000000002465299
 30
0.0
 11
423.7200000000002547
 21
240.5000000002465868
 31
0.0
  0
ENDBLK
  5
1B3
100
AcDbEntity
  8
0
100
AcDbBlockEnd
  0
BLOCK
  5
1B4
100
AcDbEntity
  8
0
100
AcDbBlockBegin
  2
ohw
 70
0
 10
0.0
 20
0.0
 30
0.0
  3
ohw
  1

  0
LWPOLYLINE
  5
1B5
  8
0
 62
256
370
-1
  6
ByLayer
100
AcDbEntity
100
AcDbPolyline
 90
69
 70
1
 10
-90.0
 20
-11.9339999999999993
 10
-90.0
 20
11.9339999999999993
 10
-68.0960000000000036
 20
15.0809999999999995
 10
-67.6149999999999949
 20
18.1170000000000009
 10
-62.3699999999999974
 20
31.7789999999999999
 10
-58.7340000000000018
 20
37.3789999999999978
 10
-72.078000000000003
 20
55.2010000000000005
 10
-55.2010000000000005
 20
72.078000000000003
 10
-37.3789999999999978
 20
58.7340000000000018
 10
-31.7789999999999999
 20
62.3699999999999974
 10
-18.1170000000000009
 20
67.6149999999999949
 10
-15.0809999999999995
 20
68.0960000000000036
 10
-11.9339999999999993
 20
90.0
 10
11.9339999999999993
 20
90.0
 10
15.0899999999999999
 20
68.0289999999999964
 10
25.0850000000000009
 20
65.3509999999999991
 10
37.6599999999999966
 20
58.9440000000000026
 10
55.2010000000000005
 20
72.078000000000003
 10
72.078000000000003
 20
55.2010000000000005
 10
58.9440000000000026
 20
37.6599999999999966
 10
65.3509999999999991
 20
25.0850000000000009
 10
68.0289999999999964
 20
15.0899999999999999
 10
90.0
 20
11.9339999999999993
 10
90.0
 20
-11.9339999999999993
 10
68.0960000000000036
 20
-15.0809999999999995
 10
67.6149999999999949
 20
-18.1170000000000009
 10
62.3699999999999974
 20
-31.7789999999999999
 10
58.7340000000000018
 20
-37.3789999999999978
 10
72.078000000000003
 20
-55.2010000000000005
 10
55.2010000000000005
 20
-72.078000000000003
 10
37.3789999999999978
 20
-58.7340000000000018
 10
31.7789999999999999
 20
-62.3699999999999974
 10
29.4929999999999986
 20
-63.2479999999999976
 10
10.5329999999999995
 20
-22.588000000000001
 10
11.3499999999999996
 20
-22.2749999999999986
 10
15.7330000000000005
 20
-19.4280000000000008
 10
19.4280000000000008
 20
-15.7330000000000005
 10
22.2749999999999986
 20
-11.3499999999999996
 10
24.1479999999999997
 20
-6.4710000000000001
 10
24.9660000000000011
 20
-1.3089999999999999
 10
24.6920000000000002
 20
3.9100000000000001
 10
23.3389999999999986
 20
8.9600000000000009
 10
20.9669999999999987
 20
13.6159999999999997
 10
17.6780000000000008
 20
17.6780000000000008
 10
13.6159999999999997
 20
20.9669999999999987
 10
8.9600000000000009
 20
23.3389999999999986
 10
3.9100000000000001
 20
24.6920000000000002
 10
-1.3089999999999999
 20
24.9660000000000011
 10
-6.4710000000000001
 20
24.1479999999999997
 10
-11.3499999999999996
 20
22.2749999999999986
 10
-15.7330000000000005
 20
19.4280000000000008
 10
-19.4280000000000008
 20
15.7330000000000005
 10
-22.2749999999999986
 20
11.3499999999999996
 10
-24.1479999999999997
 20
6.4710000000000001
 10
-24.9660000000000011
 20
1.3089999999999999
 10
-24.6920000000000002
 20
-3.9100000000000001
 10
-23.3389999999999986
 20
-8.9600000000000009
 10
-20.9669999999999987
 20
-13.6159999999999997
 10
-17.6780000000000008
 20
-17.6780000000000008
 10
-13.6159999999999997
 20
-20.9669999999999987
 10
-10.5139999999999993
 20
-22.5479999999999983
 10
-29.4390000000000001
 20
-63.1330000000000027
 10
-37.6599999999999966
 20
-58.9440000000000026
 10
-55.2010000000000005
 20
-72.078000000000003
 10
-72.078000000000003
 20
-55.2010000000000005
 10
-58.9440000000000026
 20
-37.6599999999999966
 10
-65.3509999999999991
 20
-25.0850000000000009
 10
-68.0289999999999964
 20
-15.0899999999999999
 10
-90.0
 20
-11.9339999999999993
  0
ENDBLK
  5
1B6
100
AcDbEntity
  8
0
100
AcDbBlockEnd
  0
ENDSEC
  0
SECTION
  2
ENTITIES
  0
CIRCLE
  5
1B7
100
AcDbEntity
100
AcDbCircle
  8
microATX
 62
256
370
-1
  6
ByLayer
 10
163.8299999999999841
 20
165.0999999999999375
 30
0.0
 40
1.9811999999999999
  0
CIRCLE
  5
1B8
100
AcDbEntity
100
AcDbCircle
  8
microATX
 62
256
370
-1
  6
ByLayer
 10
6.3499999999999659
 20
165.1000000000000512
 30
0.0
 40
1.9811999999999999
  0
CIRCLE
  5
1B9
100
AcDbEntity
100
AcDbCircle
  8
microATX
 62
256
370
-1
  6
ByLayer
 10
163.8299999999999841
 20
165.0999999999999375
 30
0.0
 40
1.9811999999999999
  0
CIRCLE
  5
1BA
100
AcDbEntity
100
AcDbCircle
  8
microATX
 62
256
370
-1
  6
ByLayer
 10
163.8299999999998988
 20
10.160000000000025
 30
0.0
 40
1.9811999999999999
  0
CIRCLE
  5
1BB
100
AcDbEntity
100
AcDbCircle
  8
microATX
 62
256
370
-1
  6
ByLayer
 10
6.3499999999999091
 20
33.0200000000000955
 30
0.0
 40
1.9811999999999999
  0
LINE
  5
1BC
100
AcDbEntity
100
AcDbLine
  8
Restriction
 62
256
370
-1
  6
ByLayer
 10
0.0000000000000001
 20
0.0
 30
0.0
 11
428.7200000000000273
 21
0.0
 31
0.0
  0
LINE
  5
1BD
100
AcDbEntity
100
AcDbLine
  8
Restriction
 62
256
370
-1
  6
ByLayer
 10
428.7200000000000273
 20
0.0
 30
0.0
 11
428.7200000000000273
 21
299.9999999999999432
 31
0.0
  0
LINE
  5
1BE
100
AcDbEntity
100
AcDbLine
  8
Restriction
 62
256
370
-1
  6
ByLayer
 10
428.7200000000000273
 20
299.9999999999999432
 30
0.0
 11
0.0000000000000001
 21
299.9999999999999432
 31
0.0
  0
LINE
  5
1BF
100
AcDbEntity
100
AcDbLine
  8
Restriction
 62
256
370
-1
  6
ByLayer
 10
0.0000000000000001
 20
299.9999999999999432
 30
0.0
 11
0.0000000000000001
 21
0.0
 31
0.0
  0
LINE
  5
1C0
100
AcDbEntity
100
AcDbLine
  8
microATX
 62
256
370
-1
  6
ByLayer
 10
0.0000000000000199
 20
171.0000000000000284
 30
0.0
 11
0.0
 21
0.0
 31
0.0
  0
LINE
  5
1C1
100
AcDbEntity
100
AcDbLine
  8
microATX
 62
256
370
-1
  6
ByLayer
 10
0.0000000000000199
 20
171.0000000000000284
 30
0.0
 11
170.9999999999999716
 21
171.0000000000000284
 31
0.0
  0
LINE
  5
1C2
100
AcDbEntity
100
AcDbLine
  8
microATX
 62
256
370
-1
  6
ByLayer
 10
0.0
 20
0.0
 30
0.0
 11
170.9999999999999716
 21
0.0
 31
0.0
  0
LINE
  5
1C3
100
AcDbEntity
100
AcDbLine
  8
microATX
 62
256
370
-1
  6
ByLayer
 10
170.9999999999999716
 20
0.0
 30
0.0
 11
170.9999999999999716
 21
171.0000000000000284
 31
0.0
  0
INSERT
  5
1C4
100
AcDbEntity
100
AcDbBlockReference
  8
Top
 62
256
370
-1
  6
ByLayer
  2
Top
 10
0.0
 20
0.0
 30
0.0
  0
INSERT
  5
1C5
100
AcDbEntity
100
AcDbBlockReference
  8
Top
 62
256
370
-1
  6
ByLayer
  2
Front
 10
0.0
 20
0.0
 30
0.0
  0
INSERT
  5
1C6
100
AcDbEntity
100
AcDbBlockReference
  8
Top
 62
256
370
-1
  6
ByLayer
  2
Bottom
 10
0.0
 20
0.0
 30
0.0
  0
INSERT
  5
1C7
100
AcDbEntity
100
AcDbBlockReference
  8
0
 62
256
370
-1
  6
ByLayer
  2
ohw
 10
470.0
 20
340.0
 30
0.0
 41
0.2
 42
0.2
 43
1.0
 44
0.2
 45
0.2
  0
MTEXT
  5
1C8
100
AcDbEntity
100
AcDbMText
  8
0
 62
256
370
-1
  6
ByLayer
 10
470.0
 20
324.0
 30
0.0
 40
5.0
 41
500.0
 71
2
 72
0
  1
open hardware
  7
unicode
 50
0.0
 73
1
 44
1.0
  0
LINE
  5
1C9
100
AcDbEntity
100
AcDbLine
  8
Restriction
 62
256
370
-1
  6
ByLayer
 10
418.720000000000141
 20
297.9999999999999432
 30
0.0
 11
268.720000000000141
 21
298.0
 31
0.0
  0
LINE
  5
1CA
100
AcDbEntity
100
AcDbLine
  8
Restriction
 62
256
370
-1
  6
ByLayer
 10
268.720000000000141
 20
298.0
 30
0.0
 11
268.720000000000141
 21
383.9999999999999432
 31
0.0
  0
LINE
  5
1CB
100
AcDbEntity
100
AcDbLine
  8
Restriction
 62
256
370
-1
  6
ByLayer
 10
268.720000000000141
 20
383.9999999999999432
 30
0.0
 11
418.720000000000141
 21
383.9999999999999432
 31
0.0
  0
LINE
  5
1CC
100
AcDbEntity
100
AcDbLine
  8
Restriction
 62
256
370
-1
  6
ByLayer
 10
418.720000000000141
 20
383.9999999999999432
 30
0.0
 11
418.720000000000141
 21
297.9999999999999432
 31
0.0
  0
LINE
  5
1CD
100
AcDbEntity
100
AcDbLine
  8
Restriction
 62
256
370
-1
  6
ByLayer
 10
268.720000000000141
 20
297.9999999999999432
 30
0.0
 11
268.720000000000141
 21
157.9999999999999432
 31
0.0
  0
LINE
  5
1CE
100
AcDbEntity
100
AcDbLine
  8
Restriction
 62
256
370
-1
  6
ByLayer
 10
268.720000000000141
 20
157.9999999999999432
 30
0.0
 11
418.720000000000141
 21
157.9999999999999432
 31
0.0
  0
LINE
  5
1CF
100
AcDbEntity
100
AcDbLine
  8
Restriction
 62
256
370
-1
  6
ByLayer
 10
418.720000000000141
 20
157.9999999999999432
 30
0.0
 11
418.720000000000141
 21
297.9999999999999432
 31
0.0
  0
CIRCLE
  5
1D0
100
AcDbEntity
100
AcDbCircle
  8
Bottom
 62
256
370
-1
  6
ByLayer
 10
412.720000000000141
 20
313.9999999999999432
 30
0.0
 40
2.5
  0
CIRCLE
  5
1D1
100
AcDbEntity
100
AcDbCircle
  8
Bottom
 62
256
370
-1
  6
ByLayer
 10
412.720000000000141
 20
377.9999999999999432
 30
0.0
 40
2.5
  0
CIRCLE
  5
1D2
100
AcDbEntity
100
AcDbCircle
  8
Bottom
 62
256
370
-1
  6
ByLayer
 10
274.720000000000141
 20
377.9999999999999432
 30
0.0
 40
2.5
  0
CIRCLE
  5
1D3
100
AcDbEntity
100
AcDbCircle
  8
Bottom
 62
256
370
-1
  6
ByLayer
 10
298.720000000000141
 20
303.9999999999998863
 30
0.0
 40
2.5
  0
LINE
  5
1D4
100
AcDbEntity
100
AcDbLine
  8
Bottom
 62
256
370
-1
  6
ByLayer
 10
394.0200000000001523
 20
300.9999999999999432
 30
0.0
 11
406.720000000000141
 21
313.9999999999999432
 31
0.0
  0
LINE
  5
1D5
100
AcDbEntity
100
AcDbLine
  8
Bottom
 62
256
370
-1
  6
ByLayer
 10
339.4200000000001296
 20
300.9999999999999432
 30
0.0
 11
394.0200000000001523
 21
300.9999999999999432
 31
0.0
  0
LINE
  5
1D6
100
AcDbEntity
100
AcDbLine
  8
Bottom
 62
256
370
-1
  6
ByLayer
 10
406.720000000000141
 20
313.9999999999999432
 30
0.0
 11
406.720000000000141
 21
367.9999999999999432
 31
0.0
  0
LINE
  5
1D7
100
AcDbEntity
100
AcDbLine
  8
Bottom
 62
256
370
-1
  6
ByLayer
 10
394.0200000000002092
 20
380.9999999999999432
 30
0.0
 11
406.720000000000141
 21
367.9999999999999432
 31
0.0
  0
LINE
  5
1D8
100
AcDbEntity
100
AcDbLine
  8
Bottom
 62
256
370
-1
  6
ByLayer
 10
394.0200000000002092
 20
380.9999999999999432
 30
0.0
 11
283.220000000000141
 21
381.0
 31
0.0
  0
LINE
  5
1D9
100
AcDbEntity
100
AcDbLine
  8
Bottom
 62
256
370
-1
  6
ByLayer
 10
339.4200000000001296
 20
300.9999999999999432
 30
0.0
 11
328.6738461538462843
 21
311.9999999999999432
 31
0.0
  0
LINE
  5
1DA
100
AcDbEntity
100
AcDbLine
  8
Bottom
 62
256
370
-1
  6
ByLayer
 10
283.220000000000141
 20
312.0
 30
0.0
 11
328.6738461538462843
 21
311.9999999999999432
 31
0.0
  0
LINE
  5
1DB
100
AcDbEntity
100
AcDbLine
  8
Bottom
 62
256
370
-1
  6
ByLayer
 10
283.220000000000141
 20
312.0
 30
0.0
 11
273.720000000000141
 21
326.6287171562385083
 31
0.0
  0
LINE
  5
1DC
100
AcDbEntity
100
AcDbLine
  8
Bottom
 62
256
370
-1
  6
ByLayer
 10
273.720000000000141
 20
366.3712828437614348
 30
0.0
 11
283.220000000000141
 21
381.0
 31
0.0
  0
LINE
  5
1DD
100
AcDbEntity
100
AcDbLine
  8
Bottom
 62
256
370
-1
  6
ByLayer
 10
273.720000000000141
 20
326.6287171562385083
 30
0.0
 11
273.720000000000141
 21
366.3712828437614348
 31
0.0
  0
CIRCLE
  5
1DE
100
AcDbEntity
100
AcDbCircle
  8
Bottom
 62
256
370
-1
  6
ByLayer
 10
34.25
 20
305.0499999999999545
 30
0.0
 40
2.25
  0
CIRCLE
  5
1DF
100
AcDbEntity
100
AcDbCircle
  8
Bottom
 62
256
370
-1
  6
ByLayer
 10
34.25
 20
376.5499999999999545
 30
0.0
 40
2.25
  0
CIRCLE
  5
1E0
100
AcDbEntity
100
AcDbCircle
  8
Bottom
 62
256
370
-1
  6
ByLayer
 10
105.75
 20
376.5499999999999545
 30
0.0
 40
2.25
  0
CIRCLE
  5
1E1
100
AcDbEntity
100
AcDbCircle
  8
Bottom
 62
256
370
-1
  6
ByLayer
 10
105.75
 20
305.0499999999999545
 30
0.0
 40
2.25
  0
CIRCLE
  5
1E2
100
AcDbEntity
100
AcDbCircle
  8
Bottom
 62
256
370
-1
  6
ByLayer
 10
70.0
 20
346.5499999999999545
 30
0.0
 40
1.75
  0
CIRCLE
  5
1E3
100
AcDbEntity
100
AcDbCircle
  8
Bottom
 62
256
370
-1
  6
ByLayer
 10
70.0
 20
335.0499999999999545
 30
0.0
 40
1.75
  0
CIRCLE
  5
1E4
100
AcDbEntity
100
AcDbCircle
  8
Bottom
 62
256
370
-1
  6
ByLayer
 10
64.25
 20
340.7999999999999545
 30
0.0
 40
1.75
  0
CIRCLE
  5
1E5
100
AcDbEntity
100
AcDbCircle
  8
Bottom
 62
256
370
-1
  6
ByLayer
 10
75.75
 20
340.7999999999999545
 30
0.0
 40
1.75
  0
ARC
  5
1E6
100
AcDbEntity
  8
Bottom
 62
256
370
-1
  6
ByLayer
100
AcDbCircle
 10
41.6124038053958998
 20
362.1165283827385792
 30
0.0
 40
2.5
100
AcDbArc
 50
45.0
 51
143.0967497697953945
  0
LINE
  5
1E7
100
AcDbEntity
100
AcDbLine
  8
Bottom
 62
256
370
-1
  6
ByLayer
 10
43.3801707583622829
 20
363.8842953357049055
 30
0.0
 11
43.3801707583622829
 21
363.8842953357049055
 31
0.0
  0
ARC
  5
1E8
100
AcDbEntity
  8
Bottom
 62
256
370
-1
  6
ByLayer
100
AcDbCircle
 10
41.6124038053958998
 20
362.1165283827385792
 30
0.0
 40
2.5
100
AcDbArc
 50
323.0967497697955082
 51
44.9999999999999432
  0
ARC
  5
1E9
100
AcDbEntity
  8
Bottom
 62
256
370
-1
  6
ByLayer
100
AcDbCircle
 10
48.6834716172614321
 20
369.1875961946040547
 30
0.0
 40
2.5
100
AcDbArc
 50
126.9032502302047476
 51
225.0
  0
LINE
  5
1EA
100
AcDbEntity
100
AcDbLine
  8
Bottom
 62
256
370
-1
  6
ByLayer
 10
46.915704664295049
 20
367.4198292416376717
 30
0.0
 11
46.915704664295049
 21
367.4198292416376717
 31
0.0
  0
ARC
  5
1EB
100
AcDbEntity
  8
Bottom
 62
256
370
-1
  6
ByLayer
100
AcDbCircle
 10
48.6834716172614321
 20
369.1875961946040547
 30
0.0
 40
2.5
100
AcDbArc
 50
225.0
 51
306.9032502302043213
  0
ARC
  5
1EC
100
AcDbEntity
  8
Bottom
 62
256
370
-1
  6
ByLayer
100
AcDbCircle
 10
48.0626998744893399
 20
355.6662323136451391
 30
0.0
 40
2.5
100
AcDbArc
 50
45.0
 51
145.8757164946280227
  0
LINE
  5
1ED
100
AcDbEntity
100
AcDbLine
  8
Bottom
 62
256
370
-1
  6
ByLayer
 10
49.8304668274556661
 20
357.4339992666115222
 30
0.0
 11
49.8304668274556661
 21
357.4339992666115222
 31
0.0
  0
ARC
  5
1EE
100
AcDbEntity
  8
Bottom
 62
256
370
-1
  6
ByLayer
100
AcDbCircle
 10
48.0626998744893399
 20
355.6662323136451391
 30
0.0
 40
2.5
100
AcDbArc
 50
325.8757164946281364
 51
45.0
  0
ARC
  5
1EF
100
AcDbEntity
  8
Bottom
 62
256
370
-1
  6
ByLayer
100
AcDbCircle
 10
54.6059248684358636
 20
349.1230073196986154
 30
0.0
 40
2.5
100
AcDbArc
 50
45.0
 51
151.6015495990202453
  0
LINE
  5
1F0
100
AcDbEntity
100
AcDbLine
  8
Bottom
 62
256
370
-1
  6
ByLayer
 10
56.3736918214021898
 20
350.8907742726649985
 30
0.0
 11
56.3736918214021898
 21
350.8907742726649985
 31
0.0
  0
ARC
  5
1F1
100
AcDbEntity
  8
Bottom
 62
256
370
-1
  6
ByLayer
100
AcDbCircle
 10
54.6059248684358636
 20
349.1230073196986154
 30
0.0
 40
2.5
100
AcDbArc
 50
331.6015495990202453
 51
45.0
  0
ARC
  5
1F2
100
AcDbEntity
  8
Bottom
 62
256
370
-1
  6
ByLayer
100
AcDbCircle
 10
70.0
 20
340.7999999999999545
 30
0.0
 40
15.0
100
AcDbArc
 50
151.6015495990202737
 51
208.3984504009797547
  0
ARC
  5
1F3
100
AcDbEntity
  8
Bottom
 62
256
370
-1
  6
ByLayer
100
AcDbCircle
 10
54.6059248684358636
 20
332.4769926803012936
 30
0.0
 40
2.5
100
AcDbArc
 50
315.0
 51
28.3984504009798933
  0
ARC
  5
1F4
100
AcDbEntity
  8
Bottom
 62
256
370
-1
  6
ByLayer
100
AcDbCircle
 10
70.0
 20
340.7999999999999545
 30
0.0
 40
20.0
100
AcDbArc
 50
151.6015495990202737
 51
208.3984504009797831
  0
LINE
  5
1F5
100
AcDbEntity
100
AcDbLine
  8
Bottom
 62
256
370
-1
  6
ByLayer
 10
56.3736918214021898
 20
330.7092257273349105
 30
0.0
 11
56.3736918214021898
 21
330.7092257273349105
 31
0.0
  0
ARC
  5
1F6
100
AcDbEntity
  8
Bottom
 62
256
370
-1
  6
ByLayer
100
AcDbCircle
 10
54.6059248684358636
 20
332.4769926803012936
 30
0.0
 40
2.5
100
AcDbArc
 50
208.3984504009796694
 51
315.0
  0
ARC
  5
1F7
100
AcDbEntity
  8
Bottom
 62
256
370
-1
  6
ByLayer
100
AcDbCircle
 10
70.0
 20
340.7999999999999545
 30
0.0
 40
24.0
100
AcDbArc
 50
145.8757164946280795
 51
214.1242835053719489
  0
ARC
  5
1F8
100
AcDbEntity
  8
Bottom
 62
256
370
-1
  6
ByLayer
100
AcDbCircle
 10
48.0626998744893399
 20
325.9337676863547699
 30
0.0
 40
2.5
100
AcDbArc
 50
315.0
 51
34.124283505372027
  0
ARC
  5
1F9
100
AcDbEntity
  8
Bottom
 62
256
370
-1
  6
ByLayer
100
AcDbCircle
 10
70.0
 20
340.7999999999999545
 30
0.0
 40
29.0
100
AcDbArc
 50
145.8757164946280795
 51
214.1242835053719489
  0
LINE
  5
1FA
100
AcDbEntity
100
AcDbLine
  8
Bottom
 62
256
370
-1
  6
ByLayer
 10
49.8304668274556661
 20
324.1660007333883868
 30
0.0
 11
49.8304668274556661
 21
324.1660007333883868
 31
0.0
  0
ARC
  5
1FB
100
AcDbEntity
  8
Bottom
 62
256
370
-1
  6
ByLayer
100
AcDbCircle
 10
48.0626998744893399
 20
325.9337676863547699
 30
0.0
 40
2.5
100
AcDbArc
 50
214.1242835053718352
 51
315.0
  0
ARC
  5
1FC
100
AcDbEntity
  8
Bottom
 62
256
370
-1
  6
ByLayer
100
AcDbCircle
 10
70.0
 20
340.7999999999999545
 30
0.0
 40
33.0
100
AcDbArc
 50
143.0967497697954229
 51
216.9032502302045771
  0
ARC
  5
1FD
100
AcDbEntity
  8
Bottom
 62
256
370
-1
  6
ByLayer
100
AcDbCircle
 10
41.6124038053959566
 20
319.4834716172613298
 30
0.0
 40
2.5
100
AcDbArc
 50
314.9999999999999432
 51
36.9032502302048186
  0
ARC
  5
1FE
100
AcDbEntity
  8
Bottom
 62
256
370
-1
  6
ByLayer
100
AcDbCircle
 10
70.0
 20
340.7999999999999545
 30
0.0
 40
38.0
100
AcDbArc
 50
143.0967497697954229
 51
216.9032502302045771
  0
LINE
  5
1FF
100
AcDbEntity
100
AcDbLine
  8
Bottom
 62
256
370
-1
  6
ByLayer
 10
43.3801707583622829
 20
317.7157046642950036
 30
0.0
 11
43.3801707583622829
 21
317.7157046642950036
 31
0.0
  0
ARC
  5
200
100
AcDbEntity
  8
Bottom
 62
256
370
-1
  6
ByLayer
100
AcDbCircle
 10
41.6124038053959566
 20
319.4834716172613298
 30
0.0
 40
2.5
100
AcDbArc
 50
216.903250230204236
 51
314.9999999999999432
  0
ARC
  5
201
100
AcDbEntity
  8
Bottom
 62
256
370
-1
  6
ByLayer
100
AcDbCircle
 10
48.6834716172613753
 20
312.4124038053958543
 30
0.0
 40
2.5
100
AcDbArc
 50
135.0
 51
233.0967497697950819
  0
LINE
  5
202
100
AcDbEntity
100
AcDbLine
  8
Bottom
 62
256
370
-1
  6
ByLayer
 10
46.915704664295049
 20
314.1801707583622374
 30
0.0
 11
46.915704664295049
 21
314.1801707583622374
 31
0.0
  0
ARC
  5
203
100
AcDbEntity
  8
Bottom
 62
256
370
-1
  6
ByLayer
100
AcDbCircle
 10
48.6834716172613753
 20
312.4124038053958543
 30
0.0
 40
2.5
100
AcDbArc
 50
53.0967497697957214
 51
135.0
  0
ARC
  5
204
100
AcDbEntity
  8
Bottom
 62
256
370
-1
  6
ByLayer
100
AcDbCircle
 10
55.1337676863548154
 20
318.8626998744892944
 30
0.0
 40
2.5
100
AcDbArc
 50
135.0
 51
235.875716494627909
  0
LINE
  5
205
100
AcDbEntity
100
AcDbLine
  8
Bottom
 62
256
370
-1
  6
ByLayer
 10
53.3660007333884323
 20
320.6304668274556207
 30
0.0
 11
53.3660007333884323
 21
320.6304668274556207
 31
0.0
  0
ARC
  5
206
100
AcDbEntity
  8
Bottom
 62
256
370
-1
  6
ByLayer
100
AcDbCircle
 10
55.1337676863548154
 20
318.8626998744892944
 30
0.0
 40
2.5
100
AcDbArc
 50
55.8757164946281648
 51
135.0
  0
ARC
  5
207
100
AcDbEntity
  8
Bottom
 62
256
370
-1
  6
ByLayer
100
AcDbCircle
 10
61.6769926803013391
 20
325.4059248684358181
 30
0.0
 40
2.5
100
AcDbArc
 50
135.0
 51
241.6015495990199895
  0
LINE
  5
208
100
AcDbEntity
100
AcDbLine
  8
Bottom
 62
256
370
-1
  6
ByLayer
 10
59.909225727334956
 20
327.1736918214021443
 30
0.0
 11
59.909225727334956
 21
327.1736918214021443
 31
0.0
  0
ARC
  5
209
100
AcDbEntity
  8
Bottom
 62
256
370
-1
  6
ByLayer
100
AcDbCircle
 10
61.6769926803013391
 20
325.4059248684358181
 30
0.0
 40
2.5
100
AcDbArc
 50
61.6015495990204656
 51
135.0
  0
ARC
  5
20A
100
AcDbEntity
  8
Bottom
 62
256
370
-1
  6
ByLayer
100
AcDbCircle
 10
70.0
 20
340.7999999999999545
 30
0.0
 40
15.0
100
AcDbArc
 50
241.6015495990201885
 51
298.3984504009796979
  0
ARC
  5
20B
100
AcDbEntity
  8
Bottom
 62
256
370
-1
  6
ByLayer
100
AcDbCircle
 10
78.3230073196986609
 20
325.4059248684357613
 30
0.0
 40
2.5
100
AcDbArc
 50
45.0
 51
118.3984504009797689
  0
LINE
  5
20C
100
AcDbEntity
100
AcDbLine
  8
Bottom
 62
256
370
-1
  6
ByLayer
 10
80.090774272665044
 20
327.1736918214021443
 30
0.0
 11
80.090774272665044
 21
327.1736918214021443
 31
0.0
  0
ARC
  5
20D
100
AcDbEntity
  8
Bottom
 62
256
370
-1
  6
ByLayer
100
AcDbCircle
 10
70.0
 20
340.7999999999999545
 30
0.0
 40
20.0
100
AcDbArc
 50
241.6015495990201885
 51
298.3984504009796979
  0
ARC
  5
20E
100
AcDbEntity
  8
Bottom
 62
256
370
-1
  6
ByLayer
100
AcDbCircle
 10
78.3230073196986609
 20
325.4059248684357613
 30
0.0
 40
2.5
100
AcDbArc
 50
298.3984504009795273
 51
45.0
  0
ARC
  5
20F
100
AcDbEntity
  8
Bottom
 62
256
370
-1
  6
ByLayer
100
AcDbCircle
 10
85.3940751315641364
 20
332.4769926803012936
 30
0.0
 40
2.5
100
AcDbArc
 50
151.6015495990201316
 51
224.9999999999999432
  0
LINE
  5
210
100
AcDbEntity
100
AcDbLine
  8
Bottom
 62
256
370
-1
  6
ByLayer
 10
83.6263081785978102
 20
330.7092257273349105
 30
0.0
 11
83.6263081785978102
 21
330.7092257273349105
 31
0.0
  0
ARC
  5
211
100
AcDbEntity
  8
Bottom
 62
256
370
-1
  6
ByLayer
100
AcDbCircle
 10
85.3940751315641364
 20
332.4769926803012936
 30
0.0
 40
2.5
100
AcDbArc
 50
224.9999999999999432
 51
331.6015495990204158
  0
ARC
  5
212
100
AcDbEntity
  8
Bottom
 62
256
370
-1
  6
ByLayer
100
AcDbCircle
 10
70.0
 20
340.7999999999999545
 30
0.0
 40
20.0
100
AcDbArc
 50
331.6015495990203021
 51
28.3984504009797725
  0
ARC
  5
213
100
AcDbEntity
  8
Bottom
 62
256
370
-1
  6
ByLayer
100
AcDbCircle
 10
85.3940751315641364
 20
349.1230073196986154
 30
0.0
 40
2.5
100
AcDbArc
 50
28.3984504009797476
 51
135.0
  0
ARC
  5
214
100
AcDbEntity
  8
Bottom
 62
256
370
-1
  6
ByLayer
100
AcDbCircle
 10
70.0
 20
340.7999999999999545
 30
0.0
 40
15.0
100
AcDbArc
 50
331.6015495990203021
 51
28.3984504009797618
  0
LINE
  5
215
100
AcDbEntity
100
AcDbLine
  8
Bottom
 62
256
370
-1
  6
ByLayer
 10
83.6263081785978102
 20
350.8907742726649985
 30
0.0
 11
83.6263081785978102
 21
350.8907742726649985
 31
0.0
  0
ARC
  5
216
100
AcDbEntity
  8
Bottom
 62
256
370
-1
  6
ByLayer
100
AcDbCircle
 10
85.3940751315641364
 20
349.1230073196986154
 30
0.0
 40
2.5
100
AcDbArc
 50
135.0
 51
208.3984504009798115
  0
ARC
  5
217
100
AcDbEntity
  8
Bottom
 62
256
370
-1
  6
ByLayer
100
AcDbCircle
 10
78.3230073196986609
 20
356.194075131564091
 30
0.0
 40
2.5
100
AcDbArc
 50
315.0
 51
61.6015495990202666
  0
LINE
  5
218
100
AcDbEntity
100
AcDbLine
  8
Bottom
 62
256
370
-1
  6
ByLayer
 10
80.090774272665044
 20
354.4263081785977647
 30
0.0
 11
80.090774272665044
 21
354.4263081785977647
 31
0.0
  0
ARC
  5
219
100
AcDbEntity
  8
Bottom
 62
256
370
-1
  6
ByLayer
100
AcDbCircle
 10
78.3230073196986609
 20
356.194075131564091
 30
0.0
 40
2.5
100
AcDbArc
 50
241.6015495990201885
 51
315.0
  0
ARC
  5
21A
100
AcDbEntity
  8
Bottom
 62
256
370
-1
  6
ByLayer
100
AcDbCircle
 10
70.0
 20
340.7999999999999545
 30
0.0
 40
20.0
100
AcDbArc
 50
61.6015495990202382
 51
118.3984504009796979
  0
ARC
  5
21B
100
AcDbEntity
  8
Bottom
 62
256
370
-1
  6
ByLayer
100
AcDbCircle
 10
61.6769926803013391
 20
356.1940751315641478
 30
0.0
 40
2.5
100
AcDbArc
 50
118.3984504009796694
 51
224.9999999999999432
  0
ARC
  5
21C
100
AcDbEntity
  8
Bottom
 62
256
370
-1
  6
ByLayer
100
AcDbCircle
 10
70.0
 20
340.7999999999999545
 30
0.0
 40
15.0
100
AcDbArc
 50
61.6015495990202524
 51
118.3984504009796979
  0
LINE
  5
21D
100
AcDbEntity
100
AcDbLine
  8
Bottom
 62
256
370
-1
  6
ByLayer
 10
59.909225727334956
 20
354.4263081785977647
 30
0.0
 11
59.909225727334956
 21
354.4263081785977647
 31
0.0
  0
ARC
  5
21E
100
AcDbEntity
  8
Bottom
 62
256
370
-1
  6
ByLayer
100
AcDbCircle
 10
61.6769926803013391
 20
356.1940751315641478
 30
0.0
 40
2.5
100
AcDbArc
 50
224.9999999999999432
 51
298.3984504009796979
  0
ARC
  5
21F
100
AcDbEntity
  8
Bottom
 62
256
370
-1
  6
ByLayer
100
AcDbCircle
 10
84.8662323136452414
 20
362.7373001255106146
 30
0.0
 40
2.5
100
AcDbArc
 50
235.8757164946279943
 51
315.0
  0
LINE
  5
220
100
AcDbEntity
100
AcDbLine
  8
Bottom
 62
256
370
-1
  6
ByLayer
 10
86.6339992666115677
 20
360.9695331725442884
 30
0.0
 11
86.6339992666115677
 21
360.9695331725442884
 31
0.0
  0
ARC
  5
221
100
AcDbEntity
  8
Bottom
 62
256
370
-1
  6
ByLayer
100
AcDbCircle
 10
84.8662323136452414
 20
362.7373001255106146
 30
0.0
 40
2.5
100
AcDbArc
 50
315.0
 51
55.8757164946279801
  0
ARC
  5
222
100
AcDbEntity
  8
Bottom
 62
256
370
-1
  6
ByLayer
100
AcDbCircle
 10
70.0
 20
340.7999999999999545
 30
0.0
 40
29.0
100
AcDbArc
 50
55.8757164946280511
 51
124.1242835053719205
  0
ARC
  5
223
100
AcDbEntity
  8
Bottom
 62
256
370
-1
  6
ByLayer
100
AcDbCircle
 10
55.1337676863548154
 20
362.7373001255106146
 30
0.0
 40
2.5
100
AcDbArc
 50
124.1242835053720484
 51
225.0000000000000568
  0
ARC
  5
224
100
AcDbEntity
  8
Bottom
 62
256
370
-1
  6
ByLayer
100
AcDbCircle
 10
70.0
 20
340.7999999999999545
 30
0.0
 40
38.0
100
AcDbArc
 50
53.0967497697954016
 51
126.9032502302045771
  0
ARC
  5
225
100
AcDbEntity
  8
Bottom
 62
256
370
-1
  6
ByLayer
100
AcDbCircle
 10
91.3165283827386247
 20
369.1875961946039979
 30
0.0
 40
2.5
100
AcDbArc
 50
315.0
 51
53.0967497697951742
  0
ARC
  5
226
100
AcDbEntity
  8
Bottom
 62
256
370
-1
  6
ByLayer
100
AcDbCircle
 10
70.0
 20
340.7999999999999545
 30
0.0
 40
33.0
100
AcDbArc
 50
53.0967497697954158
 51
126.9032502302045771
  0
LINE
  5
227
100
AcDbEntity
100
AcDbLine
  8
Bottom
 62
256
370
-1
  6
ByLayer
 10
93.084295335704951
 20
367.4198292416376717
 30
0.0
 11
93.084295335704951
 21
367.4198292416376717
 31
0.0
  0
ARC
  5
228
100
AcDbEntity
  8
Bottom
 62
256
370
-1
  6
ByLayer
100
AcDbCircle
 10
91.3165283827386247
 20
369.1875961946039979
 30
0.0
 40
2.5
100
AcDbArc
 50
233.0967497697953092
 51
314.9999999999998863
  0
ARC
  5
229
100
AcDbEntity
  8
Bottom
 62
256
370
-1
  6
ByLayer
100
AcDbCircle
 10
98.3875961946040434
 20
362.1165283827385792
 30
0.0
 40
2.5
100
AcDbArc
 50
36.9032502302044847
 51
135.0
  0
LINE
  5
22A
100
AcDbEntity
100
AcDbLine
  8
Bottom
 62
256
370
-1
  6
ByLayer
 10
96.6198292416377171
 20
363.8842953357049055
 30
0.0
 11
96.6198292416377171
 21
363.8842953357049055
 31
0.0
  0
ARC
  5
22B
100
AcDbEntity
  8
Bottom
 62
256
370
-1
  6
ByLayer
100
AcDbCircle
 10
98.3875961946040434
 20
362.1165283827385792
 30
0.0
 40
2.5
100
AcDbArc
 50
135.0000000000001137
 51
216.9032502302046908
  0
ARC
  5
22C
100
AcDbEntity
  8
Bottom
 62
256
370
-1
  6
ByLayer
100
AcDbCircle
 10
91.9373001255106601
 20
355.666232313645196
 30
0.0
 40
2.5
100
AcDbArc
 50
34.124283505372027
 51
135.0
  0
LINE
  5
22D
100
AcDbEntity
100
AcDbLine
  8
Bottom
 62
256
370
-1
  6
ByLayer
 10
90.1695331725443339
 20
357.4339992666115222
 30
0.0
 11
90.1695331725443339
 21
357.4339992666115222
 31
0.0
  0
ARC
  5
22E
100
AcDbEntity
  8
Bottom
 62
256
370
-1
  6
ByLayer
100
AcDbCircle
 10
91.9373001255106601
 20
355.6662323136451391
 30
0.0
 40
2.5
100
AcDbArc
 50
135.0
 51
214.1242835053719205
  0
ARC
  5
22F
100
AcDbEntity
  8
Bottom
 62
256
370
-1
  6
ByLayer
100
AcDbCircle
 10
70.0
 20
340.7999999999999545
 30
0.0
 40
38.0
100
AcDbArc
 50
323.0967497697954514
 51
36.9032502302045842
  0
ARC
  5
230
100
AcDbEntity
  8
Bottom
 62
256
370
-1
  6
ByLayer
100
AcDbCircle
 10
98.3875961946041002
 20
319.4834716172613867
 30
0.0
 40
2.5
100
AcDbArc
 50
225.0
 51
323.096749769795565
  0
ARC
  5
231
100
AcDbEntity
  8
Bottom
 62
256
370
-1
  6
ByLayer
100
AcDbCircle
 10
70.0
 20
340.7999999999999545
 30
0.0
 40
33.0
100
AcDbArc
 50
323.0967497697953945
 51
36.9032502302045913
  0
LINE
  5
232
100
AcDbEntity
100
AcDbLine
  8
Bottom
 62
256
370
-1
  6
ByLayer
 10
96.6198292416377171
 20
317.7157046642950036
 30
0.0
 11
96.6198292416377171
 21
317.7157046642950036
 31
0.0
  0
ARC
  5
233
100
AcDbEntity
  8
Bottom
 62
256
370
-1
  6
ByLayer
100
AcDbCircle
 10
98.3875961946041002
 20
319.4834716172613867
 30
0.0
 40
2.5
100
AcDbArc
 50
143.0967497697956219
 51
225.0000000000000568
  0
ARC
  5
234
100
AcDbEntity
  8
Bottom
 62
256
370
-1
  6
ByLayer
100
AcDbCircle
 10
70.0
 20
340.7999999999999545
 30
0.0
 40
29.0
100
AcDbArc
 50
325.8757164946280795
 51
34.124283505371956
  0
ARC
  5
235
100
AcDbEntity
  8
Bottom
 62
256
370
-1
  6
ByLayer
100
AcDbCircle
 10
91.9373001255106601
 20
325.9337676863547699
 30
0.0
 40
2.5
100
AcDbArc
 50
224.9999999999999432
 51
325.8757164946280795
  0
ARC
  5
236
100
AcDbEntity
  8
Bottom
 62
256
370
-1
  6
ByLayer
100
AcDbCircle
 10
70.0
 20
340.7999999999999545
 30
0.0
 40
24.0
100
AcDbArc
 50
325.8757164946280795
 51
34.1242835053719489
  0
LINE
  5
237
100
AcDbEntity
100
AcDbLine
  8
Bottom
 62
256
370
-1
  6
ByLayer
 10
90.1695331725443339
 20
324.1660007333883868
 30
0.0
 11
90.1695331725443339
 21
324.1660007333883868
 31
0.0
  0
ARC
  5
238
100
AcDbEntity
  8
Bottom
 62
256
370
-1
  6
ByLayer
100
AcDbCircle
 10
91.937300125510717
 20
325.9337676863547699
 30
0.0
 40
2.5
100
AcDbArc
 50
145.8757164946281932
 51
225.0
  0
ARC
  5
239
100
AcDbEntity
  8
Bottom
 62
256
370
-1
  6
ByLayer
100
AcDbCircle
 10
70.0
 20
340.7999999999999545
 30
0.0
 40
24.0
100
AcDbArc
 50
235.8757164946279943
 51
304.1242835053719205
  0
ARC
  5
23A
100
AcDbEntity
  8
Bottom
 62
256
370
-1
  6
ByLayer
100
AcDbCircle
 10
84.8662323136451846
 20
318.8626998744892376
 30
0.0
 40
2.5
100
AcDbArc
 50
45.0000000000000639
 51
124.1242835053719773
  0
ARC
  5
23B
100
AcDbEntity
  8
Bottom
 62
256
370
-1
  6
ByLayer
100
AcDbCircle
 10
70.0
 20
340.7999999999999545
 30
0.0
 40
29.0
100
AcDbArc
 50
235.8757164946279943
 51
304.1242835053719205
  0
LINE
  5
23C
100
AcDbEntity
100
AcDbLine
  8
Bottom
 62
256
370
-1
  6
ByLayer
 10
86.6339992666115677
 20
320.6304668274556207
 30
0.0
 11
86.6339992666115677
 21
320.6304668274556207
 31
0.0
  0
ARC
  5
23D
100
AcDbEntity
  8
Bottom
 62
256
370
-1
  6
ByLayer
100
AcDbCircle
 10
84.8662323136451846
 20
318.8626998744892376
 30
0.0
 40
2.5
100
AcDbArc
 50
304.1242835053718636
 51
45.0
  0
ARC
  5
23E
100
AcDbEntity
  8
Bottom
 62
256
370
-1
  6
ByLayer
100
AcDbCircle
 10
70.0
 20
340.7999999999999545
 30
0.0
 40
33.0
100
AcDbArc
 50
233.0967497697953945
 51
306.9032502302045486
  0
ARC
  5
23F
100
AcDbEntity
  8
Bottom
 62
256
370
-1
  6
ByLayer
100
AcDbCircle
 10
91.3165283827385679
 20
312.4124038053958543
 30
0.0
 40
2.5
100
AcDbArc
 50
45.0
 51
126.903250230204776
  0
ARC
  5
240
100
AcDbEntity
  8
Bottom
 62
256
370
-1
  6
ByLayer
100
AcDbCircle
 10
70.0
 20
340.7999999999999545
 30
0.0
 40
38.0
100
AcDbArc
 50
233.0967497697953945
 51
306.9032502302045486
  0
LINE
  5
241
100
AcDbEntity
100
AcDbLine
  8
Bottom
 62
256
370
-1
  6
ByLayer
 10
93.084295335704951
 20
314.1801707583622374
 30
0.0
 11
93.084295335704951
 21
314.1801707583622374
 31
0.0
  0
ARC
  5
242
100
AcDbEntity
  8
Bottom
 62
256
370
-1
  6
ByLayer
100
AcDbCircle
 10
91.3165283827385679
 20
312.4124038053958543
 30
0.0
 40
2.5
100
AcDbArc
 50
306.9032502302042644
 51
45.0000000000000284
  0
ARC
  5
243
100
AcDbEntity
  8
Bottom
 62
256
370
-1
  6
ByLayer
100
AcDbCircle
 10
70.0
 20
340.7999999999999545
 30
0.0
 40
24.0
100
AcDbArc
 50
55.8757164946280582
 51
124.124283505371892
  0
LINE
  5
244
100
AcDbEntity
100
AcDbLine
  8
Bottom
 62
256
370
-1
  6
ByLayer
 10
53.3660007333884323
 20
360.9695331725442884
 30
0.0
 11
53.3660007333884323
 21
360.9695331725442884
 31
0.0
  0
ARC
  5
245
100
AcDbEntity
  8
Bottom
 62
256
370
-1
  6
ByLayer
100
AcDbCircle
 10
55.1337676863548154
 20
362.7373001255106715
 30
0.0
 40
2.5
100
AcDbArc
 50
225.0000000000001137
 51
304.1242835053720341
  0
ENDSEC
  0
SECTION
  2
OBJECTS
  0
DICTIONARY
  5
C
100
AcDbDictionary
280
0
281
1
  3
ACAD_GROUP
350
D
  3
ACAD_LAYOUT
350
1A
  3
ACAD_MLINESTYLE
350
17
  3
ACAD_PLOTSETTINGS
350
19
  3
ACAD_PLOTSTYLENAME
350
E
  3
AcDbVariableDictionary
350
246
  0
DICTIONARY
  5
D
100
AcDbDictionary
280
0
281
1
  0
ACDBDICTIONARYWDFLT
  5
E
100
AcDbDictionary
281
1
  3
Normal
350
F
100
AcDbDictionaryWithDefault
340
F
  0
ACDBPLACEHOLDER
  5
F
  0
DICTIONARY
  5
17
100
AcDbDictionary
280
0
281
1
  3
Standard
350
18
  0
MLINESTYLE
  5
18
100
AcDbMlineStyle
  2
STANDARD
 70
0
  3

 62
256
 51
90.0
 52
90.0
 71
2
 49
0.5
 62
256
  6
BYLAYER
 49
-0.5
 62
256
  6
BYLAYER
  0
DICTIONARY
  5
19
100
AcDbDictionary
280
0
281
1
  0
DICTIONARY
  5
1A
100
AcDbDictionary
281
1
  3
Layout1
350
1E
  3
Layout2
350
26
  3
Model
350
22
  0
LAYOUT
  5
1E
100
AcDbPlotSettings
  1

  2
C:\Program Files\AutoCAD 2002\plotters\DWF ePlot (optimized for plotting).pc3
  4

  6

 40
0.0
 41
0.0
 42
0.0
 43
0.0
 44
0.0
 45
0.0
 46
0.0
 47
0.0
 48
0.0
 49
0.0
140
0.0
141
0.0
142
1.0
143
1.0
 70
688
 72
0
 73
0
 74
5
  7

 75
16
147
1.0
148
0.0
149
0.0
100
AcDbLayout
  1
Layout1
 70
1
 71
1
 10
0.0
 20
0.0
 11
420.0
 21
297.0
 12
0.0
 22
0.0
 32
0.0
 14
100000000000000000000.0
 24
100000000000000000000.0
 34
100000000000000000000.0
 15
-100000000000000000000.0
 25
-100000000000000000000.0
 35
-100000000000000000000.0
146
0.0
 13
0.0
 23
0.0
 33
0.0
 16
1.0
 26
0.0
 36
0.0
 17
0.0
 27
1.0
 37
0.0
 76
0
330
1B
  0
LAYOUT
  5
22
100
AcDbPlotSettings
  1

  2
C:\Program Files\AutoCAD 2002\plotters\DWF ePlot (optimized for plotting).pc3
  4

  6

 40
0.0
 41
0.0
 42
0.0
 43
0.0
 44
0.0
 45
0.0
 46
0.0
 47
0.0
 48
0.0
 49
0.0
140
0.0
141
0.0
142
1.0
143
1.0
 70
1712
 72
0
 73
0
 74
0
  7

 75
0
147
1.0
148
0.0
149
0.0
100
AcDbLayout
  1
Model
 70
1
 71
0
 10
0.0
 20
0.0
 11
12.0
 21
9.0
 12
0.0
 22
0.0
 32
0.0
 14
0.0
 24
0.0
 34
0.0
 15
0.0
 25
0.0
 35
0.0
146
0.0
 13
0.0
 23
0.0
 33
0.0
 16
1.0
 26
0.0
 36
0.0
 17
0.0
 27
1.0
 37
0.0
 76
0
330
1F
  0
LAYOUT
  5
26
100
AcDbPlotSettings
  1

  2
C:\Program Files\AutoCAD 2002\plotters\DWF ePlot (optimized for plotting).pc3
  4

  6

 40
0.0
 41
0.0
 42
0.0
 43
0.0
 44
0.0
 45
0.0
 46
0.0
 47
0.0
 48
0.0
 49
0.0
140
0.0
141
0.0
142
1.0
143
1.0
 70
688
 72
0
 73
0
 74
5
  7

 75
16
147
1.0
148
0.0
149
0.0
100
AcDbLayout
  1
Layout2
 70
1
 71
2
 10
0.0
 20
0.0
 11
12.0
 21
9.0
 12
0.0
 22
0.0
 32
0.0
 14
0.0
 24
0.0
 34
0.0
 15
0.0
 25
0.0
 35
0.0
146
0.0
 13
0.0
 23
0.0
 33
0.0
 16
1.0
 26
0.0
 36
0.0
 17
0.0
 27
1.0
 37
0.0
 76
0
330
23
  0
DICTIONARY
  5
246
100
AcDbDictionary
281
1
  3
DIMASSOC
350
248
  3
HIDETEXT
350
247
  0
DICTIONARYVAR
  5
247
100
DictionaryVariables
280
0
  1
2
  0
DICTIONARYVAR
  5
248
100
DictionaryVariables
280
0
  1
1
  0
ENDSEC
  0
EOF
